<svg xmlns="http://www.w3.org/2000/svg" xmlns:xlink="http://www.w3.org/1999/xlink" width="250" zoomAndPan="magnify" viewBox="0 0 187.5 779.999981" height="1040" preserveAspectRatio="xMidYMid meet" version="1.0"><defs><clipPath id="id1"><path d="M 10.613281 1.039062 L 176 1.039062 L 176 778.960938 L 10.613281 778.960938 Z M 10.613281 1.039062 " clip-rule="nonzero"/></clipPath></defs><g clip-path="url(#id1)"><path fill="#000000" d="M 108.148438 58.066406 C 112.9375 60.011719 116.515625 64.8125 118.808594 72.34375 C 114.257812 69.5 109.085938 68.835938 104.695312 70.671875 C 99.824219 72.703125 96.363281 77.34375 94.394531 84.484375 C 93.21875 84.382812 92.019531 84.351562 90.820312 84.386719 C 90.367188 83.761719 89.941406 83.1875 89.527344 82.640625 L 89.527344 62.515625 C 94.398438 58.839844 101.382812 55.316406 108.148438 58.066406 Z M 165.992188 108.4375 C 170.679688 111.085938 171.816406 116.789062 171.816406 121.703125 C 171.816406 124.867188 171.34375 127.707031 171.042969 129.179688 C 170.050781 134.09375 168.675781 138.953125 166.941406 143.691406 C 165.265625 139.457031 162.542969 135.671875 159.09375 132.851562 C 158.875 129.261719 157.925781 125.660156 156.335938 122.363281 C 156.050781 119.660156 155.621094 116.742188 155.027344 113.453125 C 154.695312 111.640625 154.394531 110.085938 154.09375 108.667969 C 158.835938 106.738281 162.835938 106.652344 165.992188 108.4375 Z M 163.515625 151.902344 C 161.921875 148.605469 159.847656 145.707031 157.445312 143.421875 C 158.210938 141.527344 158.726562 139.484375 158.972656 137.371094 C 161.917969 140.476562 164.027344 144.460938 164.933594 148.746094 C 164.484375 149.800781 164.007812 150.855469 163.515625 151.902344 Z M 165.25 156.148438 C 165.246094 156.136719 165.242188 156.125 165.238281 156.113281 C 165.246094 156.097656 165.253906 156.082031 165.261719 156.066406 C 165.257812 156.09375 165.253906 156.121094 165.25 156.148438 Z M 165.230469 172.925781 C 165.800781 177.058594 166.277344 181.117188 166.277344 184.960938 C 166.277344 190.160156 165.40625 194.976562 162.714844 199.054688 C 158.585938 205.324219 151.136719 207.976562 145.820312 209.097656 C 146.894531 206.550781 147.527344 203.929688 147.71875 201.277344 C 147.992188 197.394531 147.160156 193.367188 145.371094 189.832031 C 146.9375 186.6875 147.40625 182.851562 146.699219 178.851562 C 147.320312 178.761719 147.941406 178.648438 148.554688 178.511719 C 154.917969 177.082031 160.679688 173 164.425781 167.453125 C 164.734375 169.335938 164.992188 171.195312 165.230469 172.925781 Z M 139.785156 209.925781 C 137.808594 205.734375 134.5 201.714844 130.363281 198.503906 C 130.226562 198.398438 130.089844 198.292969 129.953125 198.191406 C 134.703125 198.066406 139.640625 196.820312 143.113281 193.101562 C 144.089844 195.636719 144.519531 198.378906 144.332031 201.035156 C 144.121094 204 143.253906 206.929688 141.75 209.753906 C 141.09375 209.824219 140.4375 209.882812 139.785156 209.925781 Z M 124.453125 206.890625 C 120.875 204.765625 118.140625 201.15625 117.136719 197.367188 C 117.898438 197.257812 118.664062 197.125 119.425781 196.972656 C 120.558594 197.242188 121.710938 197.472656 122.851562 197.660156 C 122.9375 197.675781 123.019531 197.6875 123.101562 197.703125 C 124.886719 198.734375 126.628906 199.90625 128.285156 201.191406 C 131.488281 203.675781 134.199219 206.789062 135.996094 209.992188 C 131.519531 209.828125 127.648438 208.789062 124.453125 206.890625 Z M 137.546875 213.410156 C 137.734375 213.960938 137.894531 214.507812 138.023438 215.054688 C 136.546875 216.710938 134.859375 218.207031 133 219.507812 C 127.457031 223.394531 120.191406 225.859375 111.40625 226.835938 C 108.347656 227.175781 105.25 227.328125 102.1875 227.296875 C 101.964844 227.1875 101.746094 227.078125 101.523438 226.964844 C 103.886719 225.101562 105.789062 222.75 107.003906 220.15625 C 108.222656 217.566406 108.835938 214.785156 108.835938 211.855469 C 108.835938 211.054688 108.789062 210.234375 108.695312 209.410156 C 109.09375 208.839844 109.445312 208.25 109.753906 207.648438 C 111.273438 204.652344 111.769531 201.335938 111.238281 197.757812 C 112.066406 197.769531 112.894531 197.753906 113.722656 197.710938 C 114.828125 202.570312 118.164062 207.109375 122.71875 209.8125 C 126.8125 212.246094 131.792969 213.453125 137.546875 213.410156 Z M 137.65625 222.796875 C 135.988281 227.265625 131.53125 230.777344 126.027344 231.953125 C 121.433594 232.933594 116.203125 232.449219 110.035156 230.46875 C 109.96875 230.449219 109.902344 230.425781 109.832031 230.40625 C 110.484375 230.347656 111.132812 230.285156 111.78125 230.214844 C 121.136719 229.175781 128.929688 226.507812 134.945312 222.292969 C 136.164062 221.441406 137.316406 220.511719 138.390625 219.519531 C 138.296875 220.648438 138.054688 221.742188 137.65625 222.796875 Z M 66.15625 231.753906 C 64.101562 232.195312 61.023438 232.253906 58.042969 230.023438 C 57.351562 229.511719 56.6875 228.980469 56.050781 228.441406 C 57.210938 228.140625 58.386719 227.804688 59.570312 227.433594 C 61.101562 227.539062 62.617188 227.324219 63.972656 226.804688 C 64.695312 226.523438 65.253906 225.980469 65.558594 225.304688 C 67.265625 224.617188 68.808594 223.917969 70.234375 223.179688 C 71.679688 224.03125 73.238281 224.808594 74.960938 225.53125 C 72.785156 228.730469 69.578125 231.019531 66.15625 231.753906 Z M 28.140625 222.339844 C 20.3125 216.359375 18.503906 205.675781 19.421875 197.675781 C 19.828125 194.152344 20.699219 190.527344 22.113281 186.507812 C 23.339844 189.589844 24.945312 192.257812 26.285156 194.199219 C 27.101562 195.378906 27.9375 196.503906 28.785156 197.558594 C 25.917969 200.273438 24.152344 203.78125 23.878906 207.398438 C 23.28125 215.21875 29.675781 223.042969 38.128906 224.832031 C 41.25 225.496094 44.53125 225.4375 47.898438 224.65625 C 48.316406 225.234375 48.757812 225.808594 49.226562 226.371094 C 40.433594 227.667969 33.351562 226.316406 28.140625 222.339844 Z M 19.964844 172.21875 C 14.664062 166.085938 12.742188 156.558594 14.828125 146.738281 C 16.078125 140.824219 18.699219 135.136719 22.304688 130.449219 C 24.117188 134.558594 26.65625 138.332031 29.75 141.492188 C 30.707031 145.53125 32.277344 149.175781 34.417969 152.351562 L 29.042969 163.242188 C 26.105469 164.820312 23.863281 166.886719 22.367188 169.394531 C 21.675781 170.558594 21.15625 171.804688 20.796875 173.121094 C 20.511719 172.824219 20.234375 172.527344 19.964844 172.21875 Z M 29.640625 123.277344 C 29.300781 124.945312 29.050781 126.597656 28.890625 128.230469 C 28.667969 130.519531 28.628906 132.792969 28.777344 135.03125 C 27.152344 132.726562 25.800781 130.203125 24.777344 127.546875 C 26.285156 125.953125 27.914062 124.527344 29.640625 123.277344 Z M 23 121.042969 C 21.140625 109.835938 24.78125 97.226562 32.738281 87.316406 C 36.257812 82.914062 40.371094 79.585938 44.570312 77.691406 C 44.289062 81.03125 45.800781 84.535156 48.628906 86.746094 C 49.277344 87.25 49.984375 87.683594 50.734375 88.046875 C 45.039062 91.207031 41.105469 97.046875 38.472656 101.570312 C 34.957031 107.589844 32.464844 113.121094 30.863281 118.449219 C 30.859375 118.453125 30.855469 118.457031 30.851562 118.457031 C 28.25 119.949219 25.824219 121.773438 23.609375 123.902344 C 23.363281 122.953125 23.160156 122 23 121.042969 Z M 64.585938 75.65625 C 65.300781 76.230469 65.988281 76.859375 66.636719 77.535156 C 62.433594 74.476562 58.246094 72.832031 53.90625 72.53125 C 53.492188 72.503906 53.078125 72.492188 52.664062 72.492188 C 53.535156 72.179688 54.46875 72 55.421875 71.984375 C 59.140625 71.921875 62.453125 73.945312 64.585938 75.65625 Z M 72.746094 72.355469 C 73.078125 72.199219 73.941406 71.902344 74.835938 72.527344 C 74.945312 72.605469 75.054688 72.6875 75.164062 72.765625 C 73.875 74.511719 72.660156 76.296875 71.535156 78.101562 C 71.34375 77.835938 71.148438 77.574219 70.945312 77.320312 C 71.214844 76.3125 71.382812 75.289062 71.457031 74.265625 C 71.515625 73.425781 72 72.710938 72.746094 72.355469 Z M 86.132812 84.867188 C 84.148438 85.210938 82.191406 85.730469 80.28125 86.425781 C 79.71875 85.964844 79.128906 85.535156 78.523438 85.144531 C 77.273438 84.347656 75.925781 83.722656 74.511719 83.269531 C 74.214844 82.609375 73.898438 81.957031 73.558594 81.320312 C 74.847656 79.132812 76.28125 76.972656 77.839844 74.867188 C 80.578125 77.203125 83.289062 80.117188 86.089844 83.730469 C 86.105469 83.746094 86.121094 83.765625 86.132812 83.785156 Z M 116.253906 74.800781 C 111 76.070312 106.089844 78.890625 102.667969 82.597656 C 101.523438 83.398438 100.363281 84.277344 99.207031 85.222656 C 98.734375 85.117188 98.261719 85.023438 97.792969 84.9375 C 99.480469 79.117188 102.238281 75.378906 106 73.808594 C 109.074219 72.523438 112.832031 72.9375 116.253906 74.800781 Z M 146.402344 108.882812 C 145.867188 109.222656 145.3125 109.585938 144.757812 109.964844 C 140.675781 107.496094 135.914062 105.773438 130.851562 104.925781 C 130.785156 103.871094 130.722656 102.808594 130.664062 101.769531 C 130.613281 100.867188 130.5625 99.96875 130.503906 99.070312 C 130.0625 92.121094 129.121094 84.890625 125.363281 78.894531 C 127.128906 79.039062 128.832031 79.378906 130.441406 79.914062 C 136.445312 81.914062 141.757812 86.761719 145.410156 93.574219 C 146.578125 95.75 147.585938 98.125 148.488281 100.816406 C 148.324219 103.664062 147.605469 106.433594 146.402344 108.882812 Z M 148.304688 112.433594 C 148.542969 112.0625 148.765625 111.675781 148.976562 111.285156 C 149.640625 110.882812 150.296875 110.507812 150.9375 110.164062 C 151.179688 111.335938 151.421875 112.609375 151.6875 114.058594 C 151.800781 114.691406 151.910156 115.308594 152.011719 115.914062 C 150.890625 114.671875 149.648438 113.503906 148.304688 112.433594 Z M 136.492188 127.210938 C 136.042969 125.410156 135.539062 123.644531 134.984375 121.925781 C 135.183594 121.738281 135.386719 121.554688 135.601562 121.359375 C 137.863281 120.847656 139.992188 119.992188 141.925781 118.808594 C 143.542969 117.8125 144.996094 116.585938 146.265625 115.152344 C 147.671875 116.285156 148.949219 117.523438 150.066406 118.855469 C 151.203125 120.207031 152.195312 121.710938 153.023438 123.324219 C 153.234375 125.464844 153.351562 127.460938 153.378906 129.359375 C 148.378906 127.148438 142.523438 126.398438 136.492188 127.210938 Z M 149.933594 147.105469 C 149.464844 148.066406 148.945312 149.007812 148.375 149.902344 C 147.847656 150.316406 147.292969 150.710938 146.714844 151.085938 C 146.414062 150.667969 146.101562 150.261719 145.769531 149.863281 C 144.054688 147.828125 141.847656 146.152344 139.347656 144.980469 C 139.242188 143.738281 139.117188 142.5 138.980469 141.285156 C 142.476562 140.582031 145.683594 140.773438 148.742188 141.863281 C 149.691406 142.199219 150.617188 142.636719 151.519531 143.160156 C 151.074219 144.53125 150.542969 145.851562 149.933594 147.105469 Z M 141.867188 184.828125 C 142.476562 184.207031 143.058594 183.570312 143.609375 182.917969 C 143.570312 184.089844 143.402344 185.214844 143.109375 186.265625 C 142.714844 185.765625 142.300781 185.285156 141.867188 184.828125 Z M 103.742188 196.871094 C 104.878906 197.132812 106.027344 197.339844 107.183594 197.484375 C 107.382812 197.511719 107.574219 197.53125 107.765625 197.550781 C 108.21875 199.921875 108.132812 202.140625 107.507812 204.175781 C 106.636719 201.640625 105.359375 199.164062 103.742188 196.871094 Z M 95.871094 213.253906 C 94.269531 213.445312 92.617188 213.40625 90.929688 213.132812 C 91.210938 207.480469 91.421875 202.054688 91.628906 196.796875 L 91.691406 195.171875 C 93.125 194.820312 94.519531 194.449219 95.863281 194.058594 C 96.402344 194.328125 96.960938 194.582031 97.527344 194.828125 C 101.515625 198.667969 104.257812 203.585938 105.132812 208.46875 C 102.898438 211.046875 99.488281 212.816406 95.871094 213.253906 Z M 90.5625 219.804688 C 90.628906 218.707031 90.6875 217.617188 90.75 216.542969 C 92.621094 216.816406 94.472656 216.84375 96.273438 216.628906 C 99.625 216.222656 102.839844 214.875 105.410156 212.859375 C 105.289062 214.921875 104.796875 216.878906 103.933594 218.710938 C 102.742188 221.25 100.734375 223.511719 98.222656 225.15625 C 95.550781 223.582031 92.980469 221.789062 90.5625 219.804688 Z M 90.304688 223.929688 C 91.652344 224.949219 93.035156 225.917969 94.453125 226.828125 C 93.03125 226.667969 91.59375 226.46875 90.148438 226.222656 C 90.203125 225.449219 90.253906 224.683594 90.304688 223.929688 Z M 85.5 215.160156 C 86.109375 215.394531 86.726562 215.601562 87.347656 215.789062 C 87.359375 215.792969 87.375 215.796875 87.390625 215.800781 C 87.371094 216.183594 87.347656 216.570312 87.324219 216.957031 C 86.707031 216.371094 86.097656 215.769531 85.5 215.160156 Z M 80.96875 216.996094 C 80.96875 216.386719 80.9375 215.773438 80.878906 215.164062 C 82.695312 217.226562 84.648438 219.179688 86.707031 220.984375 C 86.828125 221.09375 86.949219 221.199219 87.070312 221.304688 C 86.984375 222.691406 86.890625 224.121094 86.789062 225.582031 C 85.550781 225.3125 84.324219 225.019531 83.128906 224.699219 C 81.964844 224.386719 80.835938 224.050781 79.742188 223.6875 C 80.550781 221.578125 80.96875 219.296875 80.96875 216.996094 Z M 35.925781 204.832031 C 36.019531 205.085938 36.121094 205.34375 36.234375 205.613281 C 38.136719 210.125 41.207031 213.917969 44.015625 217.054688 C 44.496094 218.585938 45.148438 220.101562 45.957031 221.585938 C 43.496094 222.015625 41.105469 221.992188 38.832031 221.507812 C 31.984375 220.054688 26.792969 213.839844 27.261719 207.65625 C 27.46875 204.933594 28.808594 202.265625 30.992188 200.148438 C 32.570312 201.886719 34.222656 203.457031 35.925781 204.832031 Z M 34.46875 197.652344 C 34.480469 198.09375 34.511719 198.539062 34.554688 198.984375 C 34.269531 198.6875 33.984375 198.386719 33.703125 198.082031 C 33.953125 197.929688 34.207031 197.785156 34.46875 197.652344 Z M 40.800781 163.265625 C 42.472656 163.039062 44.171875 162.878906 45.863281 162.78125 C 45.175781 163.660156 44.585938 164.597656 44.097656 165.589844 C 41.808594 170.21875 41.542969 175.75 43.289062 181.070312 C 43.222656 181.070312 43.152344 181.074219 43.085938 181.078125 C 36.796875 181.257812 30.808594 179.863281 26.027344 177.136719 C 26.992188 175.082031 27.992188 173.035156 29.023438 170.953125 L 31.582031 165.765625 C 34.089844 164.589844 37.183594 163.75 40.800781 163.265625 Z M 36.851562 155.488281 C 38.289062 157.09375 39.9375 158.519531 41.738281 159.726562 C 41.273438 159.78125 40.8125 159.835938 40.347656 159.898438 C 37.964844 160.214844 35.773438 160.683594 33.792969 161.292969 L 36.726562 155.34375 C 36.769531 155.390625 36.808594 155.441406 36.851562 155.488281 Z M 38.902344 150.941406 C 39.269531 150.195312 39.640625 149.445312 40.007812 148.699219 C 41.28125 149.261719 42.585938 149.734375 43.90625 150.113281 C 45.0625 150.441406 46.25 150.699219 47.441406 150.882812 C 47.769531 153.652344 48.0625 156.46875 48.304688 159.289062 C 48.269531 159.289062 48.238281 159.289062 48.203125 159.289062 C 44.804688 157.96875 41.757812 155.875 39.378906 153.222656 C 39.035156 152.835938 38.699219 152.429688 38.371094 152.015625 Z M 36.984375 147.15625 C 36.71875 147.695312 36.453125 148.230469 36.1875 148.769531 C 35.625 147.785156 35.113281 146.753906 34.664062 145.679688 C 35.421875 146.210938 36.195312 146.699219 36.984375 147.15625 Z M 43.796875 120.382812 C 43.648438 120.496094 43.503906 120.621094 43.375 120.765625 C 42.726562 121.488281 42.472656 122.488281 42.6875 123.433594 C 43.335938 126.25 43.9375 129.113281 44.488281 131.949219 C 42.488281 136.003906 40.488281 140.054688 38.492188 144.101562 C 36.488281 142.921875 34.59375 141.476562 32.84375 139.785156 C 32.097656 136.203125 31.902344 132.335938 32.269531 128.5625 C 32.519531 126.011719 33.011719 123.390625 33.730469 120.757812 C 36.707031 119.226562 39.992188 118.167969 43.351562 117.648438 C 43.46875 118.558594 43.621094 119.472656 43.796875 120.382812 Z M 51.902344 117.523438 C 51.472656 118.261719 51.035156 119.039062 50.589844 119.859375 C 49.445312 119.953125 48.300781 119.964844 47.164062 119.894531 C 46.992188 119.039062 46.84375 118.175781 46.734375 117.3125 C 48.476562 117.234375 50.203125 117.308594 51.902344 117.523438 Z M 43.0625 114.253906 C 40.339844 114.65625 37.65625 115.382812 35.121094 116.398438 C 36.621094 112.25 38.695312 107.929688 41.402344 103.285156 C 43.046875 100.460938 45.234375 97.074219 48.039062 94.324219 C 44.464844 99.917969 42.726562 106.828125 43.0625 114.253906 Z M 57.671875 89.273438 C 60.132812 88.984375 62.753906 89.382812 65.34375 90.433594 C 63.628906 94.84375 62.414062 99.332031 61.722656 103.792969 C 61.476562 104.453125 61.257812 105.109375 61.070312 105.753906 C 58.507812 108.050781 56.136719 110.882812 53.84375 114.375 C 51.425781 113.953125 48.949219 113.804688 46.445312 113.925781 C 46.128906 105.996094 48.386719 98.78125 52.890625 93.449219 C 54.242188 91.855469 55.847656 90.449219 57.671875 89.273438 Z M 65.332031 86.148438 C 65.992188 86.023438 66.648438 85.925781 67.296875 85.871094 C 67.074219 86.347656 66.855469 86.824219 66.648438 87.292969 C 66.011719 87.035156 65.371094 86.808594 64.726562 86.613281 C 64.933594 86.464844 65.132812 86.3125 65.332031 86.148438 Z M 93.53125 88.273438 C 93.425781 88.121094 93.320312 87.964844 93.214844 87.808594 C 93.347656 87.8125 93.480469 87.828125 93.613281 87.835938 C 93.585938 87.980469 93.558594 88.125 93.53125 88.273438 Z M 125.851562 102.144531 C 125.890625 96.703125 125.566406 91.253906 124.890625 85.855469 C 126.316406 90.082031 126.828125 94.742188 127.117188 99.289062 C 127.171875 100.175781 127.222656 101.070312 127.273438 101.964844 C 127.3125 102.644531 127.351562 103.339844 127.394531 104.035156 C 126.933594 103.382812 126.417969 102.75 125.851562 102.144531 Z M 141.683594 112.121094 C 138.820312 114.191406 136.292969 116.203125 134.019531 118.21875 C 133.917969 118.234375 133.816406 118.253906 133.714844 118.273438 C 133.15625 116.804688 132.5625 115.375 131.929688 114 C 131.59375 112.34375 131.332031 110.535156 131.128906 108.425781 C 134.921875 109.144531 138.503906 110.402344 141.683594 112.121094 Z M 133.144531 127.820312 C 132.464844 127.976562 131.785156 128.152344 131.117188 128.347656 C 130.144531 128.632812 129.167969 128.957031 128.1875 129.324219 C 129.40625 127.726562 130.761719 126.160156 132.257812 124.601562 C 132.574219 125.660156 132.871094 126.734375 133.144531 127.820312 Z M 135.242188 138.753906 C 133.21875 139.398438 131.113281 140.292969 128.960938 141.429688 C 128.027344 141.121094 127.054688 140.847656 126.070312 140.613281 C 125.957031 140.453125 125.84375 140.289062 125.726562 140.125 C 125.902344 138.207031 125.800781 136.234375 125.410156 134.230469 C 127.628906 133.132812 129.863281 132.253906 132.066406 131.613281 C 132.679688 131.433594 133.296875 131.273438 133.917969 131.128906 C 134.4375 133.566406 134.882812 136.117188 135.242188 138.753906 Z M 133.355469 143.257812 C 133.296875 143.226562 133.234375 143.195312 133.171875 143.164062 C 134.019531 142.792969 134.847656 142.472656 135.664062 142.191406 C 135.71875 142.695312 135.773438 143.203125 135.824219 143.714844 C 135.007812 143.507812 134.183594 143.355469 133.355469 143.257812 Z M 126.523438 190.269531 C 126.601562 190.210938 126.675781 190.152344 126.753906 190.097656 C 127.902344 189.953125 129.046875 189.730469 130.171875 189.425781 C 127.675781 190.796875 125.078125 191.898438 122.410156 192.710938 C 123.859375 192.023438 125.234375 191.210938 126.523438 190.269531 Z M 83.351562 210.375 C 85.0625 206.191406 85.050781 201.179688 83.367188 196.960938 C 84.28125 196.800781 85.230469 196.613281 86.234375 196.40625 C 86.890625 196.269531 87.550781 196.132812 88.195312 195.988281 C 88.21875 195.984375 88.238281 195.980469 88.261719 195.972656 L 88.238281 196.660156 C 88.039062 201.707031 87.835938 206.902344 87.570312 212.292969 C 86.128906 211.804688 84.714844 211.164062 83.351562 210.375 Z M 73.167969 212.371094 C 73.109375 210.636719 73.339844 208.894531 73.855469 207.160156 C 75.523438 208.894531 76.695312 211.160156 77.234375 213.746094 C 76.304688 214.8125 75.226562 215.832031 74.003906 216.789062 C 73.503906 215.339844 73.21875 213.839844 73.167969 212.371094 Z M 52.539062 211.90625 C 54.878906 212.09375 57.226562 211.96875 59.453125 211.542969 C 59.769531 212.265625 60.121094 212.976562 60.515625 213.671875 C 59.6875 214.472656 58.84375 215.222656 57.992188 215.90625 C 56.363281 217.21875 54.640625 218.335938 52.84375 219.242188 C 51.875 217.078125 51.765625 214.414062 52.539062 211.90625 Z M 47.628906 211.042969 C 47.464844 212.492188 47.292969 213.949219 47.105469 215.40625 C 47.085938 215.382812 47.066406 215.363281 47.050781 215.34375 C 46.683594 214.023438 46.453125 212.667969 46.367188 211.304688 C 46.351562 211.089844 46.339844 210.875 46.332031 210.65625 C 46.757812 210.796875 47.191406 210.921875 47.628906 211.042969 Z M 42.90625 209.28125 C 42.90625 209.648438 42.914062 210.023438 42.925781 210.394531 C 42.515625 209.84375 42.125 209.273438 41.742188 208.695312 C 42.128906 208.898438 42.515625 209.09375 42.90625 209.28125 Z M 49.269531 180.425781 C 48.445312 180.574219 47.621094 180.699219 46.796875 180.800781 C 45.027344 176.078125 45.136719 171.144531 47.136719 167.097656 C 47.566406 166.234375 48.09375 165.421875 48.710938 164.660156 C 49.054688 169.898438 49.242188 175.1875 49.269531 180.425781 Z M 62.667969 149.433594 C 62.722656 149.476562 62.78125 149.523438 62.835938 149.566406 C 61.636719 151.476562 60.476562 153.507812 59.378906 155.625 C 56.675781 155.839844 54.011719 156.640625 51.597656 157.960938 C 51.394531 155.699219 51.15625 153.441406 50.898438 151.210938 C 54.808594 151.355469 58.824219 150.75 62.667969 149.433594 Z M 59.621094 146.8125 C 56.59375 147.628906 53.496094 147.960938 50.480469 147.789062 C 49.820312 142.667969 49.003906 137.511719 48.035156 132.429688 C 48.050781 132.40625 48.0625 132.378906 48.074219 132.351562 C 50.875 137.523438 54.753906 142.378906 59.621094 146.8125 Z M 73.714844 96.398438 C 73.691406 97.136719 73.632812 97.878906 73.542969 98.613281 C 70.925781 99.5 68.554688 100.578125 66.378906 101.863281 C 67.835938 99.296875 69.816406 96.941406 72.230469 94.90625 C 72.746094 95.382812 73.238281 95.882812 73.714844 96.398438 Z M 80.113281 96.871094 C 79.628906 96.96875 79.15625 97.070312 78.6875 97.175781 C 78.523438 96.941406 78.355469 96.707031 78.183594 96.472656 C 77.839844 96.015625 77.484375 95.566406 77.121094 95.132812 C 77.113281 94.445312 77.078125 93.757812 77.023438 93.074219 Z M 82.773438 94.765625 L 79.300781 90.492188 C 79.386719 90.453125 79.472656 90.414062 79.558594 90.375 C 80.714844 91.582031 81.785156 93.035156 82.773438 94.765625 Z M 89.203125 94.929688 C 88.976562 95.179688 88.746094 95.4375 88.511719 95.699219 C 88.226562 95.722656 87.941406 95.746094 87.65625 95.777344 C 87.484375 95.796875 87.316406 95.8125 87.144531 95.832031 C 85.894531 93.167969 84.519531 90.9375 82.980469 89.105469 C 84.238281 88.722656 85.511719 88.417969 86.785156 88.199219 C 87.402344 90.574219 88.199219 92.796875 89.203125 94.929688 Z M 91.945312 92.003906 C 91.871094 92.082031 91.796875 92.15625 91.71875 92.238281 C 91.527344 91.785156 91.351562 91.324219 91.175781 90.859375 C 91.441406 91.25 91.699219 91.632812 91.945312 92.003906 Z M 97.589844 93.015625 C 97.539062 93.402344 97.503906 93.792969 97.476562 94.183594 C 97.117188 93.644531 96.757812 93.105469 96.398438 92.566406 L 96.324219 92.457031 C 96.324219 92.4375 96.328125 92.417969 96.332031 92.402344 C 96.910156 91.828125 97.480469 91.28125 98.046875 90.753906 C 97.847656 91.496094 97.691406 92.25 97.589844 93.015625 Z M 101.660156 100.210938 C 101.460938 99.617188 101.300781 99.023438 101.175781 98.429688 C 106.324219 98.269531 111.941406 98.28125 116.871094 100.136719 C 117.929688 100.535156 118.941406 101.039062 119.898438 101.632812 C 120.683594 102.5 121.449219 103.402344 122.179688 104.335938 C 117.167969 104.472656 112.183594 105.414062 107.320312 107.140625 C 105.484375 105.179688 103.660156 102.949219 101.660156 100.210938 Z M 121.558594 116.121094 C 119.324219 115.515625 117.324219 114.828125 115.503906 114.042969 C 114.433594 113.382812 113.398438 112.660156 112.421875 111.886719 C 111.609375 111.242188 110.808594 110.546875 110.019531 109.820312 C 114.046875 108.546875 118.160156 107.84375 122.300781 107.730469 C 122.152344 110.527344 121.902344 113.335938 121.558594 116.121094 Z M 123.042969 127.390625 C 123.332031 126.195312 123.597656 124.9375 123.847656 123.589844 C 124.675781 122.996094 125.441406 122.332031 126.132812 121.609375 C 127.476562 121.820312 128.808594 121.925781 130.109375 121.9375 C 127.734375 124.375 125.695312 126.84375 123.949219 129.394531 C 123.675781 128.722656 123.375 128.054688 123.042969 127.390625 Z M 139.386719 164.472656 C 139.433594 164.023438 139.480469 163.582031 139.523438 163.148438 C 141.125 162.152344 142.632812 161.058594 144.039062 159.882812 C 145.203125 163.59375 145.222656 167.75 144.144531 171.648438 C 142.753906 168.996094 141.03125 166.59375 139.386719 164.472656 Z M 135.25 180.371094 C 135.140625 180.332031 135.03125 180.296875 134.921875 180.257812 C 135.046875 180.015625 135.167969 179.773438 135.289062 179.527344 C 136.960938 179.582031 138.625 179.476562 140.269531 179.195312 C 140.171875 179.316406 140.074219 179.4375 139.976562 179.550781 C 139.335938 180.296875 138.636719 180.996094 137.882812 181.640625 C 137.039062 181.144531 136.15625 180.71875 135.25 180.371094 Z M 133.160156 183.257812 C 133.460938 183.34375 133.757812 183.441406 134.042969 183.550781 C 134.289062 183.644531 134.539062 183.746094 134.78125 183.855469 C 133.769531 184.449219 132.707031 184.960938 131.605469 185.386719 C 132.152344 184.707031 132.671875 183.996094 133.160156 183.257812 Z M 76.015625 202.40625 C 77.085938 200.6875 78.445312 199.082031 79.996094 197.695312 C 81.460938 200.972656 81.625 205.03125 80.453125 208.433594 C 79.9375 208.03125 79.433594 207.609375 78.941406 207.160156 C 77.890625 205.625 76.910156 204.03125 76.015625 202.40625 Z M 63.359375 210.433594 C 63.457031 210.398438 63.550781 210.359375 63.644531 210.320312 C 63.570312 210.410156 63.492188 210.503906 63.417969 210.589844 C 63.398438 210.539062 63.378906 210.488281 63.359375 210.433594 Z M 47.992188 207.613281 C 47.5 207.46875 47.011719 207.308594 46.535156 207.132812 C 46.480469 207.109375 46.421875 207.085938 46.367188 207.066406 C 46.53125 204.199219 47.027344 201.121094 47.902344 197.5625 C 48.191406 197.695312 48.484375 197.835938 48.773438 197.980469 C 48.578125 201.15625 48.316406 204.382812 47.992188 207.613281 Z M 55.1875 202.964844 C 53.753906 203.929688 52.523438 205.097656 51.519531 206.460938 C 51.722656 204.3125 51.894531 202.167969 52.042969 200.042969 C 53.171875 200.90625 54.230469 201.890625 55.1875 202.964844 Z M 67.675781 203.800781 C 67.648438 203.828125 67.617188 203.859375 67.589844 203.882812 C 66.027344 205.351562 64.167969 206.488281 62.046875 207.289062 C 61.808594 206.792969 61.558594 206.304688 61.296875 205.824219 C 61.207031 205.203125 61.15625 204.582031 61.148438 203.972656 C 63.304688 203.402344 65.5625 203.351562 67.675781 203.800781 Z M 54.175781 208.582031 C 54.191406 208.5625 54.203125 208.542969 54.21875 208.523438 C 55.035156 207.40625 56.050781 206.453125 57.253906 205.671875 C 57.519531 206.082031 57.78125 206.507812 58.042969 206.964844 C 58.121094 207.40625 58.222656 207.847656 58.332031 208.289062 C 56.984375 208.515625 55.585938 208.613281 54.175781 208.582031 Z M 53.492188 189.84375 C 53.171875 189.605469 52.867188 189.359375 52.566406 189.105469 C 52.617188 187.308594 52.648438 185.515625 52.664062 183.753906 C 55.710938 183.523438 58.832031 183.671875 61.304688 183.839844 C 62.828125 183.945312 64.324219 184.050781 65.8125 184.171875 C 65.847656 186.09375 66.019531 188 66.328125 189.867188 C 64.511719 190.753906 62.84375 192.050781 61.46875 193.632812 C 58.464844 192.808594 55.785156 191.539062 53.492188 189.84375 Z M 66.28125 177.480469 C 66.109375 178.566406 65.984375 179.664062 65.902344 180.769531 C 64.460938 180.652344 63.011719 180.550781 61.539062 180.449219 C 61.269531 180.429688 60.992188 180.414062 60.710938 180.394531 C 62.605469 179.550781 64.464844 178.578125 66.28125 177.480469 Z M 59.183594 163.964844 C 59.8125 163.871094 60.433594 163.75 61.035156 163.605469 C 64.132812 164.113281 67.222656 164.835938 70.238281 165.753906 C 69.65625 166.851562 69.125 167.960938 68.65625 169.078125 C 68.160156 170.253906 67.726562 171.484375 67.355469 172.734375 C 62.964844 175.796875 58.296875 178.046875 53.425781 179.445312 C 55.03125 174.570312 56.929688 169.179688 59.183594 163.964844 Z M 55.402344 164.1875 C 54.347656 166.714844 53.375 169.261719 52.476562 171.753906 C 52.378906 169.121094 52.238281 166.488281 52.0625 163.867188 C 53.179688 164.054688 54.296875 164.160156 55.402344 164.1875 Z M 57.386719 159.679688 C 57.097656 159.648438 56.808594 159.617188 56.519531 159.589844 C 56.863281 159.492188 57.203125 159.402344 57.550781 159.328125 C 57.496094 159.445312 57.441406 159.558594 57.386719 159.679688 Z M 69.308594 146.335938 C 70.355469 145.707031 71.367188 145.023438 72.324219 144.296875 C 72.824219 144.90625 73.335938 145.496094 73.851562 146.066406 C 73.359375 148.027344 72.570312 149.933594 71.535156 151.671875 C 70.101562 150.742188 68.726562 149.785156 67.40625 148.808594 C 68.054688 147.890625 68.683594 147.074219 69.308594 146.335938 Z M 83.851562 101.472656 C 83.296875 102.25 82.78125 103.011719 82.304688 103.769531 C 81.800781 102.554688 81.234375 101.378906 80.605469 100.242188 C 81.242188 100.113281 81.894531 99.992188 82.558594 99.882812 Z M 98.03125 102.199219 C 97.242188 101.277344 96.550781 100.402344 95.910156 99.535156 C 95.90625 99.234375 95.898438 98.929688 95.902344 98.628906 C 96.058594 98.621094 96.214844 98.613281 96.371094 98.605469 C 97.167969 99.773438 97.910156 100.828125 98.621094 101.804688 C 98.851562 102.445312 99.117188 103.078125 99.414062 103.707031 C 98.941406 103.21875 98.476562 102.71875 98.03125 102.199219 Z M 125.367188 117.03125 C 125.199219 116.996094 125.039062 116.960938 124.875 116.925781 C 125.199219 114.390625 125.445312 111.832031 125.609375 109.277344 C 125.8125 109.613281 126.011719 109.949219 126.207031 110.285156 C 126.355469 110.539062 126.496094 110.792969 126.636719 111.046875 C 126.675781 111.347656 126.707031 111.660156 126.714844 111.988281 C 126.71875 112.0625 126.71875 112.140625 126.71875 112.21875 C 126.71875 113.863281 126.253906 115.503906 125.367188 117.03125 Z M 129.355469 117.773438 C 129.1875 117.746094 129.019531 117.71875 128.855469 117.691406 C 128.960938 117.46875 129.058594 117.25 129.148438 117.027344 C 129.214844 117.277344 129.285156 117.527344 129.355469 117.773438 Z M 120.960938 120.339844 C 120.910156 120.667969 120.859375 120.996094 120.804688 121.320312 C 120.792969 121.398438 120.777344 121.476562 120.765625 121.554688 C 120.433594 121.75 120.09375 121.929688 119.746094 122.097656 C 118.859375 120.90625 117.894531 119.757812 116.863281 118.664062 C 118.199219 119.3125 119.566406 119.871094 120.960938 120.339844 Z M 113.324219 123.394531 C 108.125 123.007812 103.070312 119.625 99.820312 114.4375 C 101.175781 113.621094 102.570312 112.867188 103.992188 112.191406 C 104.546875 112.621094 105.101562 113.050781 105.65625 113.480469 C 108.625 115.773438 111.695312 118.144531 114.261719 120.851562 C 114.988281 121.613281 115.671875 122.40625 116.324219 123.222656 C 115.3125 123.40625 114.304688 123.46875 113.324219 123.394531 Z M 117.785156 132.792969 C 116.046875 131.761719 114.203125 130.960938 112.28125 130.410156 C 112.050781 130.34375 111.820312 130.285156 111.597656 130.226562 C 110.332031 128.667969 109.0625 127.109375 107.796875 125.554688 C 109.507812 126.230469 111.28125 126.652344 113.074219 126.785156 C 114.84375 126.914062 116.683594 126.710938 118.464844 126.207031 C 118.808594 126.742188 119.132812 127.277344 119.429688 127.816406 C 118.941406 129.628906 118.394531 131.273438 117.785156 132.792969 Z M 134.667969 158.609375 C 135.253906 158.554688 135.84375 158.484375 136.425781 158.398438 C 136.402344 159.164062 136.367188 159.914062 136.316406 160.644531 Z M 130.742188 163.550781 C 131.019531 162.351562 131.210938 161.125 131.320312 159.875 L 133.488281 162.550781 C 132.582031 162.96875 131.652344 163.359375 130.703125 163.71875 C 130.714844 163.660156 130.730469 163.605469 130.742188 163.550781 Z M 128.3125 170.332031 C 128.730469 169.480469 129.113281 168.613281 129.445312 167.746094 C 131.605469 167.066406 133.699219 166.234375 135.6875 165.265625 C 135.738281 165.328125 135.789062 165.390625 135.839844 165.457031 C 135.421875 168.46875 134.785156 171.246094 133.957031 173.761719 C 131.914062 172.882812 130 171.722656 128.3125 170.332031 Z M 116.398438 185.503906 C 116.070312 185.371094 115.75 185.226562 115.433594 185.074219 C 118.902344 182.59375 121.964844 179.679688 124.433594 176.503906 C 126.617188 177.773438 129.070312 178.664062 131.667969 179.140625 C 131.609375 179.253906 131.550781 179.367188 131.488281 179.476562 C 125.765625 178.824219 119.863281 181.1875 116.398438 185.503906 Z M 109.304688 188.8125 C 110.296875 188.296875 111.261719 187.753906 112.195312 187.195312 C 112.964844 187.652344 113.761719 188.066406 114.574219 188.425781 C 114.339844 188.9375 114.132812 189.46875 113.960938 190.007812 C 112.429688 189.535156 110.871094 189.136719 109.304688 188.8125 Z M 77.480469 189.964844 C 77.683594 188.644531 77.847656 187.25 77.964844 185.753906 C 81.40625 186.441406 84.445312 187.316406 87.214844 188.421875 C 87.417969 188.5 87.621094 188.585938 87.828125 188.671875 C 88.054688 188.875 88.289062 189.074219 88.53125 189.277344 L 88.53125 189.289062 C 88.101562 189.417969 87.6875 189.550781 87.285156 189.691406 C 85.09375 190.4375 83.046875 191.402344 81.191406 192.566406 C 81.085938 192.628906 80.984375 192.695312 80.882812 192.761719 C 79.894531 191.605469 78.746094 190.660156 77.480469 189.964844 Z M 73.632812 192.113281 C 73.429688 193.039062 73.203125 193.917969 72.945312 194.757812 C 72.300781 194.785156 71.664062 194.796875 71.046875 194.796875 C 70.746094 193.914062 70.480469 193.015625 70.253906 192.097656 C 71.398438 191.875 72.542969 191.878906 73.632812 192.113281 Z M 70.300781 174.804688 C 71.597656 173.859375 72.863281 172.847656 74.085938 171.777344 C 74.675781 174.625 74.910156 177.917969 74.789062 181.753906 C 73.089844 181.5 71.289062 181.277344 69.285156 181.074219 C 69.433594 178.9375 69.773438 176.839844 70.300781 174.804688 Z M 73.046875 168.140625 C 72.917969 168.261719 72.78125 168.382812 72.648438 168.503906 C 72.75 168.300781 72.847656 168.09375 72.953125 167.890625 C 72.984375 167.972656 73.015625 168.058594 73.046875 168.140625 Z M 62.667969 159.527344 C 62.089844 159.761719 61.507812 159.960938 60.929688 160.121094 C 61.113281 159.738281 61.296875 159.359375 61.484375 158.984375 C 62.128906 159.015625 62.765625 159.09375 63.382812 159.214844 C 63.148438 159.324219 62.910156 159.429688 62.667969 159.527344 Z M 74.683594 157.566406 C 74.71875 158 74.761719 158.441406 74.8125 158.894531 C 74.183594 159.667969 73.578125 160.460938 73.007812 161.273438 C 72.195312 160.292969 71.292969 159.417969 70.300781 158.65625 C 70.285156 158.644531 70.273438 158.636719 70.257812 158.625 C 71.042969 157.894531 71.78125 157.109375 72.464844 156.265625 C 73.191406 156.703125 73.933594 157.136719 74.683594 157.566406 Z M 79.527344 145.960938 C 79.414062 146.179688 79.300781 146.394531 79.195312 146.613281 C 78.980469 146.417969 78.765625 146.21875 78.550781 146.015625 C 78.585938 145.8125 78.621094 145.605469 78.65625 145.402344 C 78.941406 145.59375 79.234375 145.777344 79.527344 145.960938 Z M 79.441406 141.808594 C 79.589844 141.230469 79.757812 140.644531 79.933594 140.0625 C 80.90625 139.980469 82.03125 140.007812 83.1875 140.289062 C 82.488281 141.152344 81.832031 142.0625 81.214844 143.015625 C 80.617188 142.632812 80.023438 142.230469 79.441406 141.808594 Z M 74.019531 137.042969 C 73.105469 136.085938 72.226562 135.078125 71.398438 134.03125 C 69.378906 131.480469 67.695312 128.742188 66.390625 125.890625 C 66.144531 125.070312 65.921875 124.238281 65.71875 123.40625 C 69.941406 126.960938 72.945312 131.867188 74.019531 137.042969 Z M 84.125 137.019531 C 83.160156 136.773438 82.152344 136.640625 81.109375 136.625 C 81.421875 135.824219 81.75 135.035156 82.105469 134.257812 C 82.726562 135.207031 83.398438 136.128906 84.125 137.019531 Z M 89.105469 123.363281 C 89.433594 122.992188 89.765625 122.625 90.105469 122.265625 C 90.339844 126.316406 90.21875 130.332031 89.75 134.246094 C 89.347656 134.515625 88.945312 134.792969 88.550781 135.089844 C 88.226562 135.328125 87.902344 135.582031 87.578125 135.84375 C 86.164062 134.234375 84.933594 132.511719 83.910156 130.695312 C 84.890625 128.953125 85.988281 127.28125 87.179688 125.71875 C 87.800781 124.902344 88.449219 124.109375 89.105469 123.363281 Z M 81.175781 123.679688 C 80.789062 121.90625 80.632812 120.140625 80.710938 118.394531 C 80.777344 116.835938 81.019531 115.289062 81.445312 113.722656 C 81.859375 117.066406 81.769531 120.429688 81.175781 123.679688 Z M 87.121094 105.5 C 88.339844 109.542969 89.207031 113.695312 89.707031 117.855469 C 88.621094 118.878906 87.566406 119.972656 86.558594 121.117188 C 85.914062 121.847656 85.277344 122.621094 84.664062 123.417969 C 85.457031 118.363281 85.160156 113.078125 83.757812 108.011719 C 84.421875 106.761719 85.191406 105.507812 86.078125 104.214844 Z M 98.035156 110.960938 C 97.355469 109.28125 96.839844 107.472656 96.484375 105.554688 C 97.964844 107.132812 99.546875 108.5625 101.074219 109.84375 C 100.109375 110.339844 99.160156 110.871094 98.230469 111.425781 C 98.164062 111.273438 98.097656 111.117188 98.035156 110.960938 Z M 92.773438 115.203125 C 92.597656 114.03125 92.390625 112.863281 92.160156 111.695312 L 94.152344 114.144531 C 93.6875 114.488281 93.226562 114.84375 92.773438 115.203125 Z M 93.375 132.179688 C 93.535156 130.246094 93.617188 128.292969 93.617188 126.324219 C 93.617188 123.96875 93.5 121.59375 93.269531 119.214844 C 94.242188 118.363281 95.253906 117.550781 96.296875 116.785156 C 98.324219 119.28125 100.355469 121.777344 102.382812 124.273438 C 103.792969 126.011719 105.207031 127.75 106.617188 129.484375 C 102.144531 129.265625 97.5625 130.191406 93.375 132.179688 Z M 116.226562 135.820312 C 116.210938 135.832031 116.191406 135.847656 116.171875 135.859375 C 116.136719 135.816406 116.101562 135.769531 116.0625 135.726562 C 116.117188 135.757812 116.171875 135.789062 116.226562 135.820312 Z M 111.070312 139.867188 C 109.324219 140.0625 107.519531 140.34375 105.691406 140.726562 C 102.617188 141.371094 99.582031 142.273438 96.660156 143.402344 C 95.035156 142.375 93.566406 141.332031 92.210938 140.238281 C 92.480469 138.9375 92.714844 137.605469 92.90625 136.269531 C 98.078125 133.242188 104.125 132.164062 109.703125 133.28125 L 110.089844 133.757812 C 111.210938 135.132812 112.332031 136.515625 113.457031 137.902344 C 112.65625 138.539062 111.855469 139.195312 111.070312 139.867188 Z M 142.175781 157.011719 C 141.421875 157.660156 140.628906 158.28125 139.804688 158.875 C 139.820312 158.488281 139.832031 158.101562 139.84375 157.707031 C 140.636719 157.503906 141.417969 157.269531 142.175781 157.011719 Z M 121.816406 169.9375 C 121.703125 169.796875 121.59375 169.652344 121.484375 169.507812 C 121.851562 169.460938 122.21875 169.410156 122.585938 169.351562 C 123.054688 169.933594 123.546875 170.496094 124.066406 171.035156 C 123.921875 171.28125 123.769531 171.527344 123.613281 171.769531 C 122.964844 171.207031 122.363281 170.59375 121.816406 169.9375 Z M 106.484375 186.429688 C 105.019531 184.273438 103.253906 182.164062 101.316406 180.253906 C 100.347656 179.296875 99.335938 178.359375 98.308594 177.457031 C 98.253906 177.320312 98.203125 177.183594 98.152344 177.042969 C 97.125 174.082031 96.824219 170.742188 97.257812 167.292969 C 99.148438 167.835938 101.03125 168.292969 102.878906 168.667969 C 102.636719 169.957031 102.539062 171.253906 102.597656 172.539062 C 102.8125 177.246094 105.167969 181.6875 109.148438 185.039062 C 108.285156 185.519531 107.398438 185.984375 106.484375 186.429688 Z M 75.546875 163.566406 C 75.574219 163.710938 75.605469 163.855469 75.636719 164 C 75.53125 163.960938 75.429688 163.921875 75.324219 163.882812 C 75.398438 163.777344 75.472656 163.671875 75.546875 163.566406 Z M 81.128906 152.492188 C 80.859375 152.71875 80.589844 152.945312 80.328125 153.179688 C 80.425781 152.832031 80.53125 152.488281 80.640625 152.144531 C 80.800781 152.261719 80.964844 152.378906 81.128906 152.492188 Z M 82.476562 147.644531 C 83.535156 148.179688 84.605469 148.65625 85.6875 149.074219 C 85.097656 149.464844 84.511719 149.871094 83.9375 150.292969 C 83.25 149.84375 82.570312 149.363281 81.898438 148.855469 C 82.082031 148.449219 82.277344 148.046875 82.476562 147.644531 Z M 92.925781 145 C 92.828125 145.042969 92.730469 145.085938 92.632812 145.132812 C 92.578125 144.976562 92.515625 144.824219 92.453125 144.671875 C 92.609375 144.78125 92.765625 144.890625 92.925781 145 Z M 104.1875 146.480469 C 103.746094 146.625 103.308594 146.761719 102.863281 146.882812 C 102.035156 146.464844 101.246094 146.054688 100.484375 145.640625 C 102.417969 145.003906 104.394531 144.472656 106.386719 144.054688 C 106.4375 144.042969 106.488281 144.035156 106.539062 144.023438 C 105.707031 144.847656 104.925781 145.664062 104.1875 146.480469 Z M 116.746094 149.917969 C 116.574219 150.058594 116.402344 150.199219 116.234375 150.34375 L 116.152344 150.410156 C 115.570312 150.898438 114.992188 151.398438 114.417969 151.90625 C 112.316406 151.132812 110.09375 150.222656 107.644531 149.132812 C 107.507812 149.070312 107.378906 149.011719 107.246094 148.953125 C 109.617188 147.941406 111.75 146.597656 113.605469 144.949219 C 114.304688 144.328125 114.96875 143.660156 115.59375 142.957031 C 116.265625 142.941406 116.921875 142.941406 117.566406 142.957031 C 117.613281 143.015625 117.664062 143.078125 117.714844 143.140625 C 117.175781 145.40625 116.851562 147.683594 116.746094 149.917969 Z M 120.175781 153.75 C 120.164062 153.578125 120.148438 153.402344 120.140625 153.226562 C 120.859375 151.800781 121.800781 150.554688 122.925781 149.546875 C 124.441406 151.414062 125.957031 153.28125 127.472656 155.144531 C 125.136719 154.902344 122.726562 154.4375 120.175781 153.75 Z M 116.136719 166.5 C 113.25 166.566406 110.277344 166.390625 107.253906 165.96875 C 108.617188 162.824219 111.085938 159.632812 114.882812 156.070312 C 115.027344 155.988281 115.175781 155.90625 115.308594 155.824219 C 115.410156 155.855469 115.511719 155.890625 115.613281 155.921875 C 114.828125 159.410156 115.019531 163.152344 116.136719 166.5 Z M 120.433594 166.214844 C 120.179688 166.242188 119.925781 166.273438 119.675781 166.296875 C 119.199219 165.121094 118.867188 163.871094 118.6875 162.59375 C 119.179688 163.851562 119.761719 165.058594 120.433594 166.214844 Z M 92.738281 173.0625 C 92.886719 170.628906 93.042969 168.304688 93.207031 166.027344 C 93.460938 166.113281 93.714844 166.199219 93.96875 166.285156 C 93.585938 168.898438 93.574219 171.476562 93.929688 173.929688 C 93.535156 173.636719 93.140625 173.347656 92.738281 173.0625 Z M 95.21875 147.683594 C 95.589844 147.515625 95.964844 147.351562 96.34375 147.195312 C 96.628906 147.363281 96.914062 147.53125 97.207031 147.703125 C 96.546875 147.71875 95.882812 147.714844 95.21875 147.683594 Z M 110.957031 154.21875 C 110.773438 154.292969 110.59375 154.367188 110.410156 154.433594 C 107.605469 155.492188 104.558594 155.988281 101.316406 155.917969 C 102.21875 154.40625 103.261719 152.898438 104.445312 151.410156 C 105 151.667969 105.597656 151.941406 106.265625 152.234375 C 107.914062 152.972656 109.472656 153.628906 110.957031 154.21875 Z M 99.570312 159.234375 C 102.417969 159.445312 105.15625 159.277344 107.753906 158.734375 C 105.96875 160.988281 104.675781 163.179688 103.824219 165.390625 C 101.882812 165.007812 99.898438 164.523438 97.898438 163.945312 C 98.308594 162.351562 98.867188 160.777344 99.570312 159.234375 Z M 88.722656 170.390625 C 85.921875 168.664062 82.988281 167.109375 79.980469 165.773438 C 81.046875 164.507812 82.058594 163.207031 82.996094 161.871094 C 84.433594 162.546875 85.8125 163.160156 87.175781 163.730469 C 88.078125 164.109375 88.988281 164.472656 89.890625 164.820312 C 89.746094 166.789062 89.609375 168.792969 89.476562 170.863281 C 89.226562 170.703125 88.972656 170.546875 88.722656 170.390625 Z M 88.835938 182.417969 C 85.535156 178.925781 82.867188 174.691406 81 170.003906 C 83.035156 171.003906 85.023438 172.097656 86.941406 173.285156 C 87.710938 173.757812 88.480469 174.253906 89.238281 174.761719 C 89.09375 177.210938 88.964844 179.714844 88.835938 182.417969 Z M 79.511719 160.167969 C 79.636719 160.234375 79.769531 160.300781 79.898438 160.363281 C 79.660156 160.695312 79.417969 161.023438 79.171875 161.351562 C 79.175781 160.90625 79.1875 160.457031 79.210938 160.011719 C 79.308594 160.0625 79.410156 160.113281 79.511719 160.167969 Z M 86.726562 155.757812 C 86.855469 155.820312 86.984375 155.882812 87.117188 155.945312 C 88.207031 156.445312 89.332031 156.902344 90.46875 157.300781 C 90.4375 157.871094 90.394531 158.453125 90.34375 159.042969 C 90.28125 159.796875 90.222656 160.542969 90.164062 161.277344 C 89.601562 161.058594 89.042969 160.828125 88.484375 160.59375 C 87.304688 160.101562 86.117188 159.578125 84.882812 159.003906 C 85.535156 157.941406 86.152344 156.855469 86.726562 155.757812 Z M 81.039062 157.132812 C 81.71875 156.484375 82.421875 155.847656 83.152344 155.230469 C 82.722656 156.003906 82.273438 156.769531 81.804688 157.519531 C 81.550781 157.390625 81.300781 157.265625 81.054688 157.140625 C 81.050781 157.136719 81.042969 157.136719 81.039062 157.132812 Z M 93.726562 159.328125 C 93.757812 158.980469 93.78125 158.640625 93.804688 158.300781 C 94.558594 158.488281 95.308594 158.652344 96.0625 158.785156 C 95.496094 160.144531 95.023438 161.53125 94.652344 162.929688 C 94.257812 162.796875 93.867188 162.660156 93.472656 162.523438 C 93.554688 161.46875 93.636719 160.410156 93.726562 159.328125 Z M 100.640625 150.804688 C 99.480469 152.386719 98.457031 153.988281 97.589844 155.59375 C 96.386719 155.414062 95.171875 155.15625 93.960938 154.828125 C 93.964844 154.613281 93.96875 154.398438 93.96875 154.191406 C 93.96875 153.058594 93.921875 151.996094 93.835938 150.992188 C 96.113281 151.195312 98.410156 151.132812 100.640625 150.804688 Z M 88.914062 151.035156 C 89.289062 150.800781 89.640625 150.585938 89.980469 150.386719 C 90.113281 150.414062 90.242188 150.445312 90.375 150.472656 C 90.492188 151.476562 90.554688 152.550781 90.570312 153.71875 C 89.882812 153.449219 89.207031 153.164062 88.550781 152.859375 C 88.433594 152.804688 88.316406 152.753906 88.203125 152.699219 C 88.453125 152.144531 88.6875 151.589844 88.914062 151.035156 Z M 95.460938 179.488281 C 96.746094 182.566406 98.703125 185.359375 101.296875 187.8125 C 99.367188 187.734375 97.484375 187.78125 95.664062 187.949219 C 94.433594 187.210938 93.238281 186.371094 92.09375 185.441406 C 92.226562 182.441406 92.359375 179.722656 92.503906 177.109375 C 93.511719 177.875 94.5 178.671875 95.460938 179.488281 Z M 86.339844 141.808594 C 86.464844 141.910156 86.59375 142.007812 86.714844 142.117188 C 87.164062 142.507812 87.570312 142.949219 87.933594 143.4375 C 87.691406 144.300781 87.4375 145.160156 87.160156 146 C 86.15625 145.621094 85.160156 145.179688 84.175781 144.691406 C 84.84375 143.675781 85.566406 142.710938 86.339844 141.808594 Z M 67.46875 160.816406 C 67.734375 160.984375 67.988281 161.164062 68.234375 161.355469 C 68.421875 161.496094 68.609375 161.648438 68.789062 161.800781 C 68.101562 161.617188 67.417969 161.445312 66.730469 161.28125 C 66.980469 161.132812 67.226562 160.976562 67.46875 160.816406 Z M 78.164062 182.328125 C 78.195312 181.484375 78.214844 180.65625 78.214844 179.855469 C 78.214844 177.695312 78.097656 175.695312 77.863281 173.835938 C 79.0625 177.242188 80.75 180.445312 82.882812 183.308594 C 82.914062 183.351562 82.949219 183.394531 82.984375 183.4375 C 81.457031 183.023438 79.851562 182.652344 78.164062 182.328125 Z M 126.636719 173.34375 C 127.277344 173.847656 127.949219 174.324219 128.636719 174.769531 C 127.863281 174.464844 127.117188 174.113281 126.402344 173.714844 C 126.480469 173.59375 126.558594 173.46875 126.636719 173.34375 Z M 121.644531 174.554688 C 119.113281 177.785156 115.898438 180.722656 112.242188 183.152344 C 108.4375 180.335938 106.175781 176.460938 105.988281 172.386719 C 105.945312 171.347656 106.023438 170.300781 106.222656 169.253906 C 110.125 169.835938 113.953125 170.03125 117.636719 169.84375 C 118.101562 170.648438 118.625 171.40625 119.207031 172.105469 C 119.941406 172.992188 120.757812 173.8125 121.644531 174.554688 Z M 126.832031 164.972656 C 125.917969 165.222656 124.996094 165.441406 124.066406 165.632812 C 122.445312 163.183594 121.308594 160.417969 120.679688 157.382812 C 123.214844 158 125.636719 158.40625 127.996094 158.605469 C 127.933594 160.03125 127.75 161.429688 127.4375 162.785156 C 127.265625 163.519531 127.0625 164.25 126.832031 164.972656 Z M 126.007812 147.566406 C 126.109375 147.816406 126.207031 148.066406 126.304688 148.316406 C 126.128906 148.101562 125.953125 147.886719 125.78125 147.675781 C 125.855469 147.640625 125.929688 147.601562 126.007812 147.566406 Z M 90.160156 98.96875 C 90.5625 98.9375 90.964844 98.90625 91.363281 98.878906 C 91.738281 99.480469 92.132812 100.074219 92.542969 100.664062 C 92.644531 103.246094 92.972656 105.699219 93.535156 108.003906 L 90.175781 103.871094 C 89.9375 103.097656 89.691406 102.332031 89.4375 101.589844 C 89.292969 101.175781 89.144531 100.757812 88.996094 100.351562 C 89.046875 100.292969 89.09375 100.238281 89.140625 100.179688 C 89.484375 99.765625 89.828125 99.359375 90.160156 98.96875 Z M 74.53125 153.542969 C 74.492188 153.519531 74.453125 153.496094 74.414062 153.472656 C 74.453125 153.40625 74.496094 153.339844 74.53125 153.273438 C 74.53125 153.363281 74.53125 153.453125 74.53125 153.542969 Z M 69.59375 188.765625 C 69.382812 187.355469 69.257812 185.925781 69.21875 184.484375 C 71.179688 184.683594 72.945312 184.90625 74.605469 185.160156 C 74.507812 186.441406 74.382812 187.636719 74.226562 188.769531 C 72.71875 188.460938 71.148438 188.460938 69.59375 188.765625 Z M 65.476562 194.441406 C 65.980469 194.023438 66.511719 193.648438 67.0625 193.324219 C 67.179688 193.773438 67.304688 194.214844 67.4375 194.65625 C 66.769531 194.601562 66.117188 194.527344 65.476562 194.441406 Z M 77.75 194.371094 C 77.34375 194.417969 76.945312 194.464844 76.550781 194.503906 C 76.632812 194.191406 76.710938 193.871094 76.789062 193.546875 C 77.125 193.792969 77.445312 194.070312 77.75 194.371094 Z M 125.414062 186.820312 C 123.742188 186.960938 122.070312 186.90625 120.4375 186.648438 C 120.296875 186.625 120.15625 186.601562 120.019531 186.574219 C 122.417969 184.261719 125.859375 182.863281 129.324219 182.78125 C 128.164062 184.296875 126.859375 185.648438 125.414062 186.820312 Z M 140.925781 153.84375 C 140.574219 153.960938 140.21875 154.078125 139.855469 154.183594 C 139.847656 153.609375 139.828125 153.027344 139.808594 152.449219 C 140.203125 152.902344 140.574219 153.367188 140.925781 153.84375 Z M 136.25 149.089844 C 136.273438 149.410156 136.289062 149.734375 136.308594 150.070312 C 136.402344 151.71875 136.457031 153.351562 136.46875 154.949219 C 135.003906 155.191406 133.515625 155.328125 132.019531 155.355469 C 131.757812 155.03125 131.496094 154.710938 131.234375 154.386719 C 130.941406 151.78125 130.289062 149.152344 129.300781 146.65625 C 130.296875 146.519531 131.324219 146.496094 132.375 146.578125 C 133.753906 147.316406 135.054688 148.160156 136.25 149.089844 Z M 119.136719 137.929688 C 119.191406 137.976562 119.242188 138.023438 119.296875 138.066406 C 119.152344 138.4375 119.015625 138.8125 118.882812 139.191406 C 118.785156 139.074219 118.691406 138.957031 118.597656 138.839844 C 118.769531 138.546875 118.933594 138.253906 119.097656 137.957031 C 119.109375 137.949219 119.125 137.941406 119.136719 137.929688 Z M 100.839844 95.039062 C 100.847656 94.507812 100.890625 93.980469 100.957031 93.457031 C 101.136719 92.121094 101.503906 90.808594 102.0625 89.550781 C 106.035156 90.890625 109.871094 92.964844 113.433594 95.675781 C 109.207031 94.871094 104.875 94.910156 100.839844 95.039062 Z M 74.652344 107 C 75.5 105.175781 76.132812 103.234375 76.546875 101.230469 C 76.75 101.171875 76.953125 101.113281 77.160156 101.058594 C 78.382812 103.117188 79.378906 105.339844 80.121094 107.683594 C 78.410156 111.226562 77.46875 114.773438 77.320312 118.246094 C 77.152344 121.972656 77.894531 125.753906 79.515625 129.484375 C 78.902344 131.039062 78.148438 132.539062 77.277344 133.945312 C 77.152344 134.148438 77.027344 134.347656 76.894531 134.546875 C 75.058594 128.128906 70.671875 122.25 64.824219 118.542969 C 64.8125 118.472656 64.804688 118.398438 64.796875 118.328125 C 69.160156 115.417969 72.558594 111.519531 74.652344 107 Z M 64.722656 107.109375 C 64.875 106.988281 65.03125 106.867188 65.195312 106.738281 C 67.421875 105.042969 69.902344 103.65625 72.722656 102.53125 C 72.410156 103.578125 72.027344 104.59375 71.574219 105.570312 C 70 108.96875 67.570312 111.964844 64.476562 114.371094 C 64.390625 111.976562 64.472656 109.542969 64.722656 107.109375 Z M 48.011719 123.332031 C 48.261719 123.339844 48.511719 123.34375 48.761719 123.339844 C 48.605469 123.648438 48.453125 123.953125 48.296875 124.257812 C 48.199219 123.953125 48.105469 123.644531 48.011719 123.332031 Z M 51.042969 130.707031 C 50.664062 130 50.300781 129.273438 49.960938 128.535156 C 50.859375 126.722656 51.78125 124.855469 52.746094 123.027344 C 55.5625 122.601562 58.3125 121.757812 60.9375 120.511719 C 61.464844 122.707031 62.222656 124.914062 63.207031 127.09375 C 64.722656 132.097656 66.949219 136.765625 69.839844 140.976562 C 68.902344 141.769531 67.996094 142.667969 67.101562 143.691406 C 65.886719 144.398438 64.625 145.023438 63.328125 145.554688 C 58.054688 141.027344 53.925781 136.035156 51.042969 130.707031 Z M 65.539062 151.648438 C 66.828125 152.601562 68.171875 153.535156 69.566406 154.445312 C 68.828125 155.316406 68.023438 156.109375 67.15625 156.824219 C 65.90625 156.292969 64.566406 155.925781 63.167969 155.730469 C 63.9375 154.316406 64.726562 152.953125 65.539062 151.648438 Z M 61.574219 200.398438 C 61.84375 199.386719 62.28125 198.386719 62.859375 197.453125 C 64.683594 197.8125 66.632812 198.046875 68.675781 198.144531 C 69.070312 199.085938 69.496094 200.007812 69.960938 200.890625 C 67.300781 200.046875 64.390625 199.878906 61.574219 200.398438 Z M 117.199219 191.035156 C 117.359375 190.53125 117.558594 190.035156 117.800781 189.554688 C 118.5 189.742188 119.203125 189.890625 119.90625 190.003906 C 119.964844 190.011719 120.027344 190.019531 120.085938 190.027344 C 119.160156 190.421875 118.195312 190.757812 117.199219 191.035156 Z M 140.976562 175.59375 C 139.691406 175.464844 138.414062 175.226562 137.164062 174.886719 C 137.753906 173.101562 138.253906 171.195312 138.652344 169.183594 C 139.984375 171.085938 141.203125 173.113281 142.113281 175.292969 C 141.738281 175.402344 141.359375 175.503906 140.976562 175.59375 Z M 104.914062 85.175781 C 106.507812 84.074219 108.128906 83.101562 109.734375 82.285156 C 113.183594 80.535156 116.828125 79.40625 120.378906 78.992188 C 121.636719 85.652344 122.328125 92.4375 122.441406 99.238281 C 122.328125 99.160156 122.214844 99.082031 122.097656 99.007812 C 116.769531 93.214844 110.480469 88.945312 103.792969 86.558594 C 104.140625 86.085938 104.515625 85.621094 104.914062 85.175781 Z M 72.324219 90.558594 C 71.46875 89.910156 70.589844 89.324219 69.695312 88.800781 C 70.097656 87.882812 70.535156 86.957031 70.996094 86.027344 C 71.503906 86.566406 72.023438 87.140625 72.570312 87.757812 C 72.792969 88.492188 72.988281 89.242188 73.144531 90 C 72.867188 90.183594 72.59375 90.371094 72.324219 90.558594 Z M 67.363281 94.851562 C 67.679688 93.890625 68.019531 92.929688 68.386719 91.976562 C 68.777344 92.214844 69.164062 92.46875 69.546875 92.738281 C 68.777344 93.410156 68.050781 94.117188 67.363281 94.851562 Z M 60.082031 111.652344 C 60.003906 113.140625 60.035156 114.652344 60.191406 116.175781 C 59.277344 115.804688 58.339844 115.480469 57.382812 115.199219 C 58.265625 113.914062 59.167969 112.734375 60.082031 111.652344 Z M 54.910156 119.109375 C 55.089844 118.796875 55.273438 118.492188 55.453125 118.191406 C 55.886719 118.300781 56.316406 118.421875 56.738281 118.550781 C 56.132812 118.757812 55.523438 118.949219 54.910156 119.109375 Z M 44.835938 146.84375 C 43.714844 146.523438 42.601562 146.121094 41.515625 145.648438 C 42.847656 142.949219 44.179688 140.25 45.511719 137.546875 C 46.070312 140.808594 46.566406 144.089844 47 147.359375 C 46.269531 147.21875 45.546875 147.046875 44.835938 146.84375 Z M 40.210938 192.648438 C 39.625 192.671875 39.035156 192.726562 38.445312 192.816406 C 38.863281 191.429688 39.5 190.183594 40.351562 189.09375 C 41.589844 187.511719 43.1875 186.300781 45.210938 185.421875 C 45.761719 186.398438 46.378906 187.332031 47.058594 188.214844 C 46.570312 189.761719 46.050781 191.453125 45.554688 193.183594 C 43.78125 192.753906 41.992188 192.574219 40.210938 192.648438 Z M 48.976562 194.324219 C 48.910156 194.296875 48.847656 194.269531 48.785156 194.242188 C 48.859375 193.972656 48.9375 193.703125 49.015625 193.433594 C 49.003906 193.730469 48.988281 194.027344 48.976562 194.324219 Z M 52.421875 193.242188 C 54.527344 194.65625 56.878906 195.773438 59.449219 196.582031 C 58.886719 197.664062 58.457031 198.792969 58.1875 199.933594 C 58.105469 200.285156 58.035156 200.636719 57.976562 200.996094 C 56.316406 199.074219 54.382812 197.402344 52.285156 196.078125 C 52.335938 195.132812 52.378906 194.1875 52.421875 193.242188 Z M 40.347656 196.042969 C 41.785156 195.984375 43.234375 196.125 44.675781 196.464844 C 43.839844 199.816406 43.320312 202.78125 43.074219 205.550781 C 41.621094 204.769531 40.191406 203.839844 38.804688 202.773438 C 38.101562 200.648438 37.78125 198.464844 37.867188 196.386719 C 38.695312 196.191406 39.527344 196.078125 40.347656 196.042969 Z M 71.125 218.785156 C 70.875 218.9375 70.617188 219.089844 70.359375 219.242188 C 69.113281 218.394531 67.972656 217.472656 66.957031 216.484375 C 66.195312 215.746094 65.488281 214.945312 64.847656 214.09375 C 66.664062 212.117188 68.4375 209.871094 70.34375 207.128906 C 69.90625 208.902344 69.710938 210.691406 69.773438 212.484375 C 69.847656 214.597656 70.308594 216.75 71.125 218.785156 Z M 65.671875 221.578125 C 65.625 220.964844 65.5625 220.359375 65.492188 219.761719 C 65.972656 220.183594 66.46875 220.59375 66.984375 220.988281 C 66.558594 221.1875 66.121094 221.382812 65.671875 221.578125 Z M 75.480469 219.933594 C 76.199219 219.398438 76.878906 218.84375 77.523438 218.269531 C 77.421875 219.492188 77.179688 220.6875 76.804688 221.832031 C 76.316406 221.226562 75.875 220.59375 75.480469 219.933594 Z M 50.71875 84.066406 C 48.433594 82.277344 47.382812 79.164062 48.214844 76.660156 C 48.246094 76.570312 48.285156 76.480469 48.320312 76.390625 C 50.109375 75.960938 51.90625 75.800781 53.671875 75.921875 C 57.664062 76.199219 61.566406 77.859375 65.558594 80.976562 C 65.03125 81.722656 64.433594 82.402344 63.777344 83.011719 C 61.339844 83.582031 58.898438 84.574219 56.660156 85.90625 C 54.398438 85.953125 52.304688 85.308594 50.71875 84.066406 Z M 24.085938 181.464844 C 24.257812 181.058594 24.433594 180.652344 24.613281 180.238281 C 29.113281 182.742188 34.515625 184.199219 40.234375 184.449219 C 39.273438 185.199219 38.421875 186.050781 37.679688 186.996094 C 36.164062 188.933594 35.175781 191.222656 34.730469 193.808594 C 33.585938 194.25 32.496094 194.808594 31.464844 195.46875 C 30.65625 194.460938 29.855469 193.390625 29.078125 192.265625 C 27.316406 189.714844 25.058594 185.8125 24.085938 181.464844 Z M 53.882812 225.476562 C 53.625 225.535156 53.371094 225.59375 53.117188 225.652344 C 52.488281 224.984375 51.902344 224.300781 51.355469 223.605469 C 51.441406 223.574219 51.523438 223.542969 51.609375 223.511719 C 52.273438 224.257812 53.042969 224.917969 53.882812 225.476562 Z M 54.914062 221.996094 C 56.722656 221.039062 58.46875 219.886719 60.117188 218.554688 C 60.644531 218.132812 61.164062 217.691406 61.679688 217.226562 C 62.015625 219.03125 62.246094 220.925781 62.363281 222.894531 C 61.730469 223.128906 61.09375 223.355469 60.457031 223.570312 C 60.050781 223.710938 59.644531 223.847656 59.226562 223.980469 C 57.648438 223.742188 56.125 223.03125 54.914062 221.996094 Z M 140.992188 190.375 C 137.617188 194.378906 131.921875 195.078125 126.914062 194.722656 C 129.3125 193.757812 131.648438 192.578125 133.890625 191.1875 C 135.855469 189.972656 137.699219 188.617188 139.394531 187.15625 C 140.152344 187.949219 140.835938 188.832031 141.445312 189.792969 C 141.304688 189.992188 141.152344 190.1875 140.992188 190.375 Z M 152.132812 173.710938 C 156.058594 170.574219 159.589844 166.195312 162.964844 160.328125 C 163.132812 160.960938 163.292969 161.621094 163.445312 162.304688 C 161.117188 167.339844 157.007812 171.433594 152.132812 173.710938 Z M 161.535156 155.875 C 161.375 156.183594 161.214844 156.492188 161.046875 156.796875 C 157.550781 163.269531 153.949219 167.933594 149.933594 171.121094 C 151.355469 165.679688 150.988281 159.847656 148.898438 154.980469 C 149.628906 154.082031 150.3125 153.152344 150.933594 152.203125 C 152.769531 150.691406 154.335938 148.945312 155.585938 147.015625 C 155.671875 146.886719 155.753906 146.75 155.835938 146.613281 C 157.894531 148.761719 159.644531 151.441406 160.964844 154.476562 C 161.160156 154.921875 161.347656 155.386719 161.535156 155.875 Z M 152.433594 139.785156 C 151.597656 139.347656 150.75 138.96875 149.878906 138.660156 C 146.347656 137.402344 142.546875 137.152344 138.550781 137.910156 C 138.195312 135.371094 137.761719 132.90625 137.261719 130.542969 C 143.089844 129.8125 148.683594 130.695312 153.304688 133.09375 C 153.175781 135.476562 152.886719 137.6875 152.433594 139.785156 Z M 86.132812 65.371094 L 86.132812 78.414062 C 84.054688 76.003906 81.996094 73.9375 79.914062 72.171875 C 81.125 70.667969 82.402344 69.191406 83.730469 67.765625 C 84.507812 66.929688 85.3125 66.132812 86.132812 65.371094 Z M 115.234375 307.65625 C 123.242188 310.179688 129.5625 314.730469 133.027344 320.472656 C 136.019531 325.429688 136.84375 331.855469 135.277344 338.085938 C 133.652344 344.574219 129.703125 350.089844 124.4375 353.214844 C 122.8125 354.183594 121.050781 354.945312 119.179688 355.484375 C 118.945312 350.371094 118.539062 345.210938 117.976562 340.105469 C 117.5 335.792969 116.5 331.058594 112.714844 328.652344 C 107.382812 325.257812 100.371094 328.980469 96.367188 334.65625 C 95.730469 331.945312 94.691406 329.230469 92.609375 327.160156 C 91.425781 325.984375 90.003906 325.132812 88.394531 324.632812 C 87.066406 324.214844 85.617188 324.046875 84.128906 324.128906 C 84.074219 320.664062 84.316406 316.914062 84.851562 312.960938 C 85.054688 311.472656 85.292969 309.90625 85.609375 307.984375 C 86.496094 307.710938 87.398438 307.453125 88.308594 307.222656 C 97.527344 304.863281 106.835938 305.011719 115.234375 307.65625 Z M 115.816406 356.207031 C 110.070312 357.035156 103.960938 355.90625 98.722656 353.039062 C 98.386719 348.460938 97.894531 343.984375 97.261719 339.71875 C 97.730469 338.835938 98.234375 337.984375 98.757812 337.179688 C 101.230469 333.359375 106.796875 328.910156 110.894531 331.519531 C 113.460938 333.152344 114.195312 336.792969 114.601562 340.480469 C 115.179688 345.699219 115.585938 350.984375 115.816406 356.207031 Z M 115.941406 359.621094 C 116.957031 393.839844 110.578125 428.453125 97.457031 459.863281 C 96.089844 463.136719 94.652344 466.253906 92.433594 468.523438 C 92.726562 465.105469 93.003906 461.839844 93.285156 458.574219 C 94.3125 446.550781 95.375 434.125 96.988281 413.894531 C 98.132812 399.511719 99.308594 384.777344 99.308594 370.007812 C 99.308594 365.664062 99.207031 361.3125 98.972656 356.96875 C 104.289062 359.425781 110.261719 360.367188 115.941406 359.621094 Z M 88.816406 471.046875 C 88.398438 471.222656 87.964844 471.355469 87.523438 471.453125 C 86.09375 471.769531 84.691406 471.640625 83.46875 471.078125 C 80.347656 469.644531 79.789062 466.203125 79.417969 462.1875 L 76 425.039062 C 79.449219 423.21875 82.101562 420.335938 83.710938 416.628906 C 86.449219 410.332031 88.417969 403.734375 89.558594 397.019531 C 89.769531 395.820312 89.949219 394.59375 90.117188 393.265625 C 90.847656 387.3125 90.980469 381.125 91.109375 375.140625 C 91.273438 367.765625 91.433594 360.175781 92.742188 353.128906 C 93.605469 353.820312 94.511719 354.46875 95.460938 355.0625 C 96.714844 374.609375 95.132812 394.441406 93.601562 413.625 C 91.992188 433.84375 90.929688 446.269531 89.902344 458.28125 C 89.546875 462.433594 89.191406 466.585938 88.816406 471.046875 Z M 90.859375 346.425781 C 90.789062 346.332031 90.71875 346.242188 90.648438 346.148438 C 90.175781 345.519531 89.734375 344.875 89.324219 344.21875 C 86.484375 339.691406 84.792969 334.078125 84.28125 327.523438 C 85.378906 327.460938 86.433594 327.578125 87.382812 327.875 C 88.472656 328.214844 89.425781 328.785156 90.21875 329.570312 C 92.402344 331.746094 93.121094 335.265625 93.621094 338.386719 L 93.652344 338.582031 C 93.683594 338.765625 93.710938 338.949219 93.738281 339.132812 C 92.59375 341.40625 91.644531 343.816406 90.859375 346.425781 Z M 87.71875 375.0625 C 87.589844 380.96875 87.457031 387.070312 86.746094 392.847656 C 86.585938 394.117188 86.414062 395.292969 86.214844 396.445312 C 85.117188 402.890625 83.226562 409.222656 80.597656 415.273438 C 79.503906 417.792969 77.820312 419.835938 75.65625 421.292969 L 74.476562 408.476562 C 72.753906 389.730469 70.972656 370.351562 71.015625 351.25 C 71.027344 344.941406 71.351562 337.777344 75.085938 332.582031 C 76.480469 330.636719 78.589844 329.089844 80.9375 328.234375 C 81.527344 335.152344 83.382812 341.132812 86.449219 346.019531 C 86.90625 346.753906 87.40625 347.484375 87.9375 348.195312 C 88.523438 348.972656 89.15625 349.722656 89.824219 350.433594 C 88.078125 358.34375 87.894531 366.835938 87.71875 375.0625 Z M 93.566406 349.359375 C 93.886719 348.117188 94.242188 346.921875 94.632812 345.769531 C 94.820312 347.386719 94.984375 349.027344 95.128906 350.683594 C 94.589844 350.261719 94.070312 349.824219 93.566406 349.359375 Z M 55.34375 416.328125 C 49.101562 404.894531 45.199219 393.183594 43.734375 381.519531 C 41.039062 360.09375 47.15625 338.691406 60.089844 324.269531 C 66.03125 317.652344 73.550781 312.5 81.964844 309.253906 C 81.78125 310.433594 81.625 311.496094 81.488281 312.503906 C 80.902344 316.832031 80.652344 320.933594 80.746094 324.71875 C 77.382812 325.714844 74.308594 327.84375 72.328125 330.597656 C 68.011719 336.613281 67.636719 344.410156 67.621094 351.242188 C 67.582031 370.484375 69.363281 389.960938 71.097656 408.789062 L 72.398438 422.90625 C 66.699219 424.84375 59.140625 423.277344 55.34375 416.328125 Z M 80.40625 9.109375 C 80.40625 12.632812 82.851562 15.582031 86.132812 16.347656 L 86.132812 60.863281 C 86.046875 60.933594 85.960938 61 85.875 61.070312 C 84.277344 62.394531 82.722656 63.867188 81.25 65.445312 C 79.851562 66.945312 78.511719 68.496094 77.242188 70.078125 C 77.089844 69.964844 76.933594 69.851562 76.785156 69.746094 C 75.148438 68.597656 73.09375 68.425781 71.289062 69.285156 C 69.449219 70.160156 68.214844 71.976562 68.070312 74.023438 C 68.066406 74.074219 68.0625 74.121094 68.058594 74.171875 C 67.621094 73.765625 67.167969 73.375 66.707031 73.003906 C 64.144531 70.945312 60.09375 68.503906 55.367188 68.585938 C 51.515625 68.644531 47.921875 70.558594 46.003906 73.511719 C 40.339844 75.289062 34.710938 79.414062 30.089844 85.1875 C 23.023438 93.992188 19.128906 104.820312 19.132812 115.171875 C 19.132812 117.34375 19.304688 119.496094 19.652344 121.601562 C 19.941406 123.335938 20.363281 125.074219 20.910156 126.773438 C 16.273438 132.199219 13.03125 138.835938 11.507812 146.03125 C 10.90625 148.867188 10.613281 151.683594 10.613281 154.425781 C 10.613281 162.183594 12.972656 169.320312 17.402344 174.445312 C 18.261719 175.4375 19.214844 176.367188 20.226562 177.21875 C 20.222656 177.308594 20.222656 177.398438 20.222656 177.488281 C 20.222656 178.660156 20.335938 179.871094 20.554688 181.105469 C 18.0625 187.128906 16.625 192.285156 16.050781 197.285156 C 15.894531 198.632812 15.8125 200.042969 15.8125 201.5 C 15.8125 209.710938 18.472656 219.230469 26.085938 225.039062 C 32.507812 229.945312 41.222656 231.394531 52 229.351562 C 53.222656 230.53125 54.566406 231.671875 56.011719 232.75 C 59.132812 235.082031 62.988281 235.910156 66.867188 235.078125 C 71.128906 234.164062 75.089844 231.367188 77.746094 227.46875 C 80.054688 229.234375 82.660156 230.445312 85.375 231 C 85.703125 231.066406 86.039062 231.125 86.378906 231.175781 C 86.304688 232.144531 86.222656 233.125 86.140625 234.121094 L 86.140625 234.261719 L 86.132812 234.261719 L 86.132812 274.191406 C 86.152344 274.195312 86.191406 278.972656 86.191406 278.972656 C 86.050781 286.183594 84.699219 293.699219 83.394531 300.96875 C 83.125 302.449219 82.859375 303.929688 82.605469 305.402344 C 72.941406 308.769531 64.300781 314.496094 57.5625 322 C 46.085938 334.796875 39.714844 352.78125 39.714844 371.5625 C 39.714844 375.003906 39.929688 378.476562 40.367188 381.945312 C 41.882812 394.03125 45.917969 406.144531 52.363281 417.953125 C 56.398438 425.34375 64.851562 428.714844 72.714844 426.378906 L 76.039062 462.5 C 76.378906 466.199219 76.894531 471.796875 82.054688 474.167969 C 83.953125 475.039062 86.097656 475.25 88.246094 474.777344 C 88.335938 474.757812 88.421875 474.738281 88.507812 474.71875 C 87.914062 481.773438 87.359375 488.53125 86.777344 495.734375 L 86.371094 502.070312 C 86.25 504.644531 86.191406 507.222656 86.191406 509.785156 C 86.191406 509.785156 86.339844 521.207031 86.414062 521.214844 C 86.707031 528.574219 88.519531 533.804688 95.144531 537.976562 C 103.148438 543.011719 110.4375 548.359375 111.671875 558.304688 C 112.507812 565.082031 110.15625 572.050781 105.375 576.941406 C 98.195312 584.289062 89.171875 583.777344 79.625 583.230469 C 78.527344 583.175781 77.429688 583.113281 76.332031 583.0625 C 65.410156 582.566406 53.261719 583.421875 45.960938 593.511719 C 43.128906 597.425781 40.886719 603.023438 40.886719 608.464844 C 40.886719 610.445312 41.183594 612.40625 41.859375 614.257812 C 43.652344 619.164062 47.847656 623.207031 52.8125 624.808594 C 58.242188 626.5625 64.070312 625.503906 69.558594 624.097656 C 70.082031 623.964844 70.605469 623.824219 71.132812 623.6875 C 75.617188 622.515625 80.253906 621.308594 84.71875 621.808594 C 93.0625 622.753906 96.054688 629.191406 97.097656 632.945312 C 99.464844 641.453125 96.515625 651.820312 90.386719 656.542969 C 89.070312 657.554688 87.609375 658.441406 86.0625 659.390625 C 82.257812 661.703125 78.324219 664.09375 76.613281 668.476562 C 74.664062 673.476562 76.148438 676.796875 77.738281 678.703125 C 81.25 682.914062 88.074219 683.808594 92.925781 682.855469 C 96.269531 682.199219 99.417969 680.933594 102.464844 679.710938 C 104.347656 678.957031 106.292969 678.175781 108.226562 677.5625 C 114.699219 675.53125 122 677.007812 126.828125 681.320312 C 130.921875 684.980469 132.582031 690.082031 131.496094 695.6875 C 130.636719 700.136719 127.789062 704.160156 123.878906 706.433594 C 120.015625 708.683594 115.488281 709.21875 110.691406 709.785156 C 106.777344 710.246094 102.726562 710.722656 98.945312 712.203125 C 91.203125 715.238281 86.851562 720.167969 86.359375 726.457031 C 85.972656 731.390625 86.105469 749.199219 86.238281 759.515625 L 80.640625 759.515625 L 88.066406 780.394531 L 95.492188 759.515625 L 89.632812 759.515625 C 89.5 749.261719 89.367188 731.519531 89.742188 726.726562 C 90.128906 721.753906 93.644531 717.929688 100.183594 715.371094 C 103.558594 714.046875 107.214844 713.613281 111.089844 713.160156 C 116.015625 712.574219 121.113281 711.972656 125.585938 709.371094 C 130.332031 706.605469 133.785156 701.730469 134.832031 696.335938 C 136.148438 689.511719 134.109375 683.277344 129.085938 678.785156 C 123.386719 673.6875 114.800781 671.933594 107.210938 674.324219 C 105.152344 674.96875 103.140625 675.777344 101.199219 676.558594 C 98.167969 677.773438 95.304688 678.921875 92.269531 679.519531 C 87.578125 680.441406 82.558594 679.183594 80.34375 676.527344 C 78.882812 674.773438 78.691406 672.484375 79.773438 669.707031 C 81.066406 666.402344 84.351562 664.40625 87.824219 662.292969 C 89.382812 661.34375 90.992188 660.363281 92.453125 659.234375 C 99.722656 653.640625 103.125 641.945312 100.367188 632.035156 C 98.203125 624.246094 92.640625 619.289062 85.097656 618.4375 C 80.007812 617.859375 75.058594 619.148438 70.273438 620.398438 C 69.753906 620.535156 69.234375 620.671875 68.714844 620.804688 C 64.0625 621.996094 58.691406 623.136719 53.855469 621.574219 C 49.863281 620.285156 46.488281 617.03125 45.046875 613.089844 C 42.960938 607.371094 45.480469 599.96875 48.707031 595.511719 C 55.046875 586.746094 65.65625 585.980469 76.175781 586.457031 C 77.261719 586.503906 78.347656 586.566406 79.429688 586.628906 C 89.316406 587.1875 99.542969 587.765625 107.800781 579.320312 C 113.300781 573.695312 116.003906 565.683594 115.039062 557.882812 C 113.625 546.46875 105.328125 540.367188 96.949219 535.097656 C 90.839844 531.253906 89.765625 526.761719 89.765625 518.761719 L 89.765625 502.140625 C 89.851562 500.285156 89.964844 498.425781 90.117188 496.582031 C 90.761719 488.558594 91.375 481.097656 92.039062 473.179688 C 96.429688 470.453125 98.671875 465.765625 100.585938 461.175781 C 113.964844 429.152344 120.433594 393.84375 119.316406 358.972656 C 121.761719 358.34375 124.0625 357.390625 126.171875 356.140625 C 132.207031 352.554688 136.726562 346.277344 138.570312 338.914062 C 140.355469 331.808594 139.390625 324.441406 135.933594 318.714844 C 132.039062 312.265625 125.050781 307.1875 116.25 304.414062 C 107.25 301.582031 97.296875 301.414062 87.46875 303.929688 C 87.0625 304.035156 86.65625 304.140625 86.253906 304.253906 C 86.414062 303.359375 86.570312 302.46875 86.734375 301.570312 C 88.066406 294.167969 89.441406 286.515625 89.585938 279.03125 C 89.585938 279.019531 89.585938 279.007812 89.585938 278.996094 L 89.585938 278.988281 C 89.601562 278.136719 89.601562 277.277344 89.585938 276.429688 L 89.585938 273.816406 C 89.566406 273.816406 89.527344 260.179688 89.527344 260.179688 L 89.527344 234.335938 C 89.613281 233.324219 89.695312 232.332031 89.769531 231.355469 C 91.621094 231.285156 93.46875 230.941406 95.277344 230.328125 C 97.3125 230.523438 99.363281 230.644531 101.386719 230.683594 C 103.851562 231.859375 106.414062 232.875 109 233.707031 C 115.746094 235.871094 121.546875 236.386719 126.738281 235.277344 C 133.359375 233.859375 138.765625 229.535156 140.835938 223.988281 C 141.777344 221.472656 142.054688 218.792969 141.660156 216.019531 C 142.464844 215.023438 143.203125 213.976562 143.859375 212.902344 C 153.730469 211.429688 161.429688 207.179688 165.550781 200.929688 C 170.875 192.847656 170.027344 182.851562 168.59375 172.460938 C 168.171875 169.414062 167.695312 165.980469 166.996094 162.660156 C 167.707031 160.921875 168.214844 159.125 168.511719 157.3125 C 168.945312 154.632812 168.929688 151.878906 168.460938 149.125 C 171.054688 142.898438 173.042969 136.417969 174.371094 129.855469 C 175.5 124.300781 177.097656 110.804688 167.660156 105.476562 C 163.675781 103.226562 158.855469 103.175781 153.324219 105.3125 C 152.882812 103.546875 152.417969 101.90625 151.90625 100.335938 C 152.074219 95.398438 150.804688 90.546875 148.316406 86.644531 C 143.175781 78.589844 133.253906 73.710938 122.773438 73.964844 C 120.253906 63.898438 115.769531 57.492188 109.425781 54.917969 C 103.503906 52.511719 96.527344 53.746094 89.527344 58.359375 L 89.527344 16.347656 C 92.808594 15.578125 95.253906 12.632812 95.253906 9.109375 C 95.253906 5.003906 91.929688 1.675781 87.828125 1.675781 C 83.726562 1.675781 80.40625 5.003906 80.40625 9.109375 " fill-opacity="1" fill-rule="nonzero"/></g></svg>