<svg width="34" height="32" viewBox="0 0 34 32" fill="none" xmlns="http://www.w3.org/2000/svg">
<path d="M6.72881 16.0847L6.32743 16.2854C5.20925 16.8445 4.23661 17.6563 3.48652 18.6564L3.44052 18.7177C3.18126 19.0634 2.95364 19.4317 2.7604 19.8182L2.58744 20.1641C2.20112 20.9367 2 21.7887 2 22.6525V22.7912C2 23.5639 2.17989 24.3259 2.52542 25.0169V25.0169C2.87096 25.708 3.37264 26.3091 3.99075 26.7727L4.16519 26.9036C4.81517 27.391 5.56607 27.7268 6.36276 27.8861V27.8861C7.29127 28.0718 8.25217 28.012 9.15047 27.7126L9.95679 27.4438C10.6048 27.2278 11.2249 26.9357 11.8041 26.5737L12.7713 25.9692C14.3384 24.9898 15.7474 23.7777 16.9501 22.3746L18.2881 20.8136L20.3898 17.661L21.2384 16.4731C22.4223 14.8156 23.4745 13.0679 24.3854 11.2461L24.5932 10.8305L25.0566 9.9037C25.4429 9.13106 25.6441 8.27909 25.6441 7.41525V6.75115C25.6441 6.32405 25.5446 5.90281 25.3536 5.5208V5.5208C24.8876 4.58875 23.935 4 22.8929 4H22.0963C21.6621 4 21.2307 4.07001 20.8187 4.20732L20.2222 4.40617C18.9628 4.82595 17.8614 5.61979 17.0649 6.68176V6.68176C16.83 6.99498 16.6238 7.3287 16.4487 7.67889L16.1415 8.2932C15.8226 8.93104 15.5902 9.60856 15.4503 10.3078L15.3446 10.8363C15.2066 11.5262 15.2066 12.2365 15.3446 12.9264V12.9264C15.5509 13.958 16.058 14.9054 16.8019 15.6493L17.4326 16.28C17.6521 16.4996 17.8928 16.6969 18.1512 16.8691V16.8691C18.9257 17.3855 19.8357 17.661 20.7666 17.661H22.7009C23.6087 17.661 24.5132 17.5497 25.3939 17.3295L28.2712 16.6102L30.8983 15.5593L33 14.5085" stroke="black" stroke-width="3"/>
</svg>
