<svg xmlns="http://www.w3.org/2000/svg" xmlns:xlink="http://www.w3.org/1999/xlink" width="250" zoomAndPan="magnify" viewBox="0 0 187.5 74.999997" height="100" preserveAspectRatio="xMidYMid meet" version="1.0"><defs><filter x="0%" y="0%" width="100%" height="100%" id="id1"><feColorMatrix values="0 0 0 0 1 0 0 0 0 1 0 0 0 0 1 0 0 0 1 0" color-interpolation-filters="sRGB"/></filter><g/><clipPath id="id2"><path d="M 17 57 L 25 57 L 25 61 L 17 61 Z M 17 57 " clip-rule="nonzero"/></clipPath><clipPath id="id3"><path d="M -5.09375 54.222656 L 10.964844 3.453125 L 59.589844 18.832031 L 43.53125 69.601562 Z M -5.09375 54.222656 " clip-rule="nonzero"/></clipPath><clipPath id="id4"><path d="M 43.332031 69.539062 L 59.390625 18.769531 L 10.761719 3.386719 L -5.296875 54.160156 Z M 43.332031 69.539062 " clip-rule="nonzero"/></clipPath><clipPath id="id5"><path d="M 7 39 L 8 39 L 8 42 L 7 42 Z M 7 39 " clip-rule="nonzero"/></clipPath><clipPath id="id6"><path d="M -5.09375 54.222656 L 10.964844 3.453125 L 59.589844 18.832031 L 43.53125 69.601562 Z M -5.09375 54.222656 " clip-rule="nonzero"/></clipPath><clipPath id="id7"><path d="M 43.332031 69.539062 L 59.390625 18.769531 L 10.761719 3.386719 L -5.296875 54.160156 Z M 43.332031 69.539062 " clip-rule="nonzero"/></clipPath><clipPath id="id8"><path d="M 1 10 L 47 10 L 47 63 L 1 63 Z M 1 10 " clip-rule="nonzero"/></clipPath><clipPath id="id9"><path d="M -5.09375 54.222656 L 10.964844 3.453125 L 59.589844 18.832031 L 43.53125 69.601562 Z M -5.09375 54.222656 " clip-rule="nonzero"/></clipPath><clipPath id="id10"><path d="M 43.332031 69.539062 L 59.390625 18.769531 L 10.761719 3.386719 L -5.296875 54.160156 Z M 43.332031 69.539062 " clip-rule="nonzero"/></clipPath><clipPath id="id11"><path d="M 8 48 L 18 48 L 18 58 L 8 58 Z M 8 48 " clip-rule="nonzero"/></clipPath><clipPath id="id12"><path d="M -5.09375 54.222656 L 10.964844 3.453125 L 59.589844 18.832031 L 43.53125 69.601562 Z M -5.09375 54.222656 " clip-rule="nonzero"/></clipPath><clipPath id="id13"><path d="M 43.332031 69.539062 L 59.390625 18.769531 L 10.761719 3.386719 L -5.296875 54.160156 Z M 43.332031 69.539062 " clip-rule="nonzero"/></clipPath><clipPath id="id14"><path d="M 6 37 L 8 37 L 8 40 L 6 40 Z M 6 37 " clip-rule="nonzero"/></clipPath><clipPath id="id15"><path d="M -5.09375 54.222656 L 10.964844 3.453125 L 59.589844 18.832031 L 43.53125 69.601562 Z M -5.09375 54.222656 " clip-rule="nonzero"/></clipPath><clipPath id="id16"><path d="M 43.332031 69.539062 L 59.390625 18.769531 L 10.761719 3.386719 L -5.296875 54.160156 Z M 43.332031 69.539062 " clip-rule="nonzero"/></clipPath><clipPath id="id17"><path d="M 6 35 L 8 35 L 8 38 L 6 38 Z M 6 35 " clip-rule="nonzero"/></clipPath><clipPath id="id18"><path d="M -5.09375 54.222656 L 10.964844 3.453125 L 59.589844 18.832031 L 43.53125 69.601562 Z M -5.09375 54.222656 " clip-rule="nonzero"/></clipPath><clipPath id="id19"><path d="M 43.332031 69.539062 L 59.390625 18.769531 L 10.761719 3.386719 L -5.296875 54.160156 Z M 43.332031 69.539062 " clip-rule="nonzero"/></clipPath><clipPath id="id20"><path d="M 5 41 L 9 41 L 9 49 L 5 49 Z M 5 41 " clip-rule="nonzero"/></clipPath><clipPath id="id21"><path d="M -5.09375 54.222656 L 10.964844 3.453125 L 59.589844 18.832031 L 43.53125 69.601562 Z M -5.09375 54.222656 " clip-rule="nonzero"/></clipPath><clipPath id="id22"><path d="M 43.332031 69.539062 L 59.390625 18.769531 L 10.761719 3.386719 L -5.296875 54.160156 Z M 43.332031 69.539062 " clip-rule="nonzero"/></clipPath><clipPath id="id23"><path d="M 46 54 L 48 54 L 48 56 L 46 56 Z M 46 54 " clip-rule="nonzero"/></clipPath><clipPath id="id24"><path d="M -5.09375 54.222656 L 10.964844 3.453125 L 59.589844 18.832031 L 43.53125 69.601562 Z M -5.09375 54.222656 " clip-rule="nonzero"/></clipPath><clipPath id="id25"><path d="M 43.332031 69.539062 L 59.390625 18.769531 L 10.761719 3.386719 L -5.296875 54.160156 Z M 43.332031 69.539062 " clip-rule="nonzero"/></clipPath><clipPath id="id26"><path d="M 45 55 L 47 55 L 47 57 L 45 57 Z M 45 55 " clip-rule="nonzero"/></clipPath><clipPath id="id27"><path d="M -5.09375 54.222656 L 10.964844 3.453125 L 59.589844 18.832031 L 43.53125 69.601562 Z M -5.09375 54.222656 " clip-rule="nonzero"/></clipPath><clipPath id="id28"><path d="M 43.332031 69.539062 L 59.390625 18.769531 L 10.761719 3.386719 L -5.296875 54.160156 Z M 43.332031 69.539062 " clip-rule="nonzero"/></clipPath><clipPath id="id29"><path d="M 41 58 L 44 58 L 44 59 L 41 59 Z M 41 58 " clip-rule="nonzero"/></clipPath><clipPath id="id30"><path d="M -5.09375 54.222656 L 10.964844 3.453125 L 59.589844 18.832031 L 43.53125 69.601562 Z M -5.09375 54.222656 " clip-rule="nonzero"/></clipPath><clipPath id="id31"><path d="M 43.332031 69.539062 L 59.390625 18.769531 L 10.761719 3.386719 L -5.296875 54.160156 Z M 43.332031 69.539062 " clip-rule="nonzero"/></clipPath><clipPath id="id32"><path d="M 39 19 L 41 19 L 41 21 L 39 21 Z M 39 19 " clip-rule="nonzero"/></clipPath><clipPath id="id33"><path d="M -5.09375 54.222656 L 10.964844 3.453125 L 59.589844 18.832031 L 43.53125 69.601562 Z M -5.09375 54.222656 " clip-rule="nonzero"/></clipPath><clipPath id="id34"><path d="M 43.332031 69.539062 L 59.390625 18.769531 L 10.761719 3.386719 L -5.296875 54.160156 Z M 43.332031 69.539062 " clip-rule="nonzero"/></clipPath><clipPath id="id35"><path d="M 37 18 L 39 18 L 39 19 L 37 19 Z M 37 18 " clip-rule="nonzero"/></clipPath><clipPath id="id36"><path d="M -5.09375 54.222656 L 10.964844 3.453125 L 59.589844 18.832031 L 43.53125 69.601562 Z M -5.09375 54.222656 " clip-rule="nonzero"/></clipPath><clipPath id="id37"><path d="M 43.332031 69.539062 L 59.390625 18.769531 L 10.761719 3.386719 L -5.296875 54.160156 Z M 43.332031 69.539062 " clip-rule="nonzero"/></clipPath><clipPath id="id38"><path d="M 40 19 L 41 19 L 41 21 L 40 21 Z M 40 19 " clip-rule="nonzero"/></clipPath><clipPath id="id39"><path d="M -5.09375 54.222656 L 10.964844 3.453125 L 59.589844 18.832031 L 43.53125 69.601562 Z M -5.09375 54.222656 " clip-rule="nonzero"/></clipPath><clipPath id="id40"><path d="M 43.332031 69.539062 L 59.390625 18.769531 L 10.761719 3.386719 L -5.296875 54.160156 Z M 43.332031 69.539062 " clip-rule="nonzero"/></clipPath><clipPath id="id41"><path d="M 5 40 L 6 40 L 6 43 L 5 43 Z M 5 40 " clip-rule="nonzero"/></clipPath><clipPath id="id42"><path d="M -5.09375 54.222656 L 10.964844 3.453125 L 59.589844 18.832031 L 43.53125 69.601562 Z M -5.09375 54.222656 " clip-rule="nonzero"/></clipPath><clipPath id="id43"><path d="M 43.332031 69.539062 L 59.390625 18.769531 L 10.761719 3.386719 L -5.296875 54.160156 Z M 43.332031 69.539062 " clip-rule="nonzero"/></clipPath><clipPath id="id44"><path d="M 36 17 L 38 17 L 38 19 L 36 19 Z M 36 17 " clip-rule="nonzero"/></clipPath><clipPath id="id45"><path d="M -5.09375 54.222656 L 10.964844 3.453125 L 59.589844 18.832031 L 43.53125 69.601562 Z M -5.09375 54.222656 " clip-rule="nonzero"/></clipPath><clipPath id="id46"><path d="M 43.332031 69.539062 L 59.390625 18.769531 L 10.761719 3.386719 L -5.296875 54.160156 Z M 43.332031 69.539062 " clip-rule="nonzero"/></clipPath><clipPath id="id47"><path d="M 4 13 L 41 13 L 41 41 L 4 41 Z M 4 13 " clip-rule="nonzero"/></clipPath><clipPath id="id48"><path d="M -5.09375 54.222656 L 10.964844 3.453125 L 59.589844 18.832031 L 43.53125 69.601562 Z M -5.09375 54.222656 " clip-rule="nonzero"/></clipPath><clipPath id="id49"><path d="M 43.332031 69.539062 L 59.390625 18.769531 L 10.761719 3.386719 L -5.296875 54.160156 Z M 43.332031 69.539062 " clip-rule="nonzero"/></clipPath><clipPath id="id50"><path d="M 18 17 L 19 17 L 19 18 L 18 18 Z M 18 17 " clip-rule="nonzero"/></clipPath><clipPath id="id51"><path d="M -5.09375 54.222656 L 10.964844 3.453125 L 59.589844 18.832031 L 43.53125 69.601562 Z M -5.09375 54.222656 " clip-rule="nonzero"/></clipPath><clipPath id="id52"><path d="M 43.332031 69.539062 L 59.390625 18.769531 L 10.761719 3.386719 L -5.296875 54.160156 Z M 43.332031 69.539062 " clip-rule="nonzero"/></clipPath><clipPath id="id53"><path d="M 34 16 L 37 16 L 37 18 L 34 18 Z M 34 16 " clip-rule="nonzero"/></clipPath><clipPath id="id54"><path d="M -5.09375 54.222656 L 10.964844 3.453125 L 59.589844 18.832031 L 43.53125 69.601562 Z M -5.09375 54.222656 " clip-rule="nonzero"/></clipPath><clipPath id="id55"><path d="M 43.332031 69.539062 L 59.390625 18.769531 L 10.761719 3.386719 L -5.296875 54.160156 Z M 43.332031 69.539062 " clip-rule="nonzero"/></clipPath><clipPath id="id56"><path d="M 38 18 L 40 18 L 40 19 L 38 19 Z M 38 18 " clip-rule="nonzero"/></clipPath><clipPath id="id57"><path d="M -5.09375 54.222656 L 10.964844 3.453125 L 59.589844 18.832031 L 43.53125 69.601562 Z M -5.09375 54.222656 " clip-rule="nonzero"/></clipPath><clipPath id="id58"><path d="M 43.332031 69.539062 L 59.390625 18.769531 L 10.761719 3.386719 L -5.296875 54.160156 Z M 43.332031 69.539062 " clip-rule="nonzero"/></clipPath><clipPath id="id59"><path d="M 24 62 L 29 62 L 29 64 L 24 64 Z M 24 62 " clip-rule="nonzero"/></clipPath><clipPath id="id60"><path d="M -5.09375 54.222656 L 10.964844 3.453125 L 59.589844 18.832031 L 43.53125 69.601562 Z M -5.09375 54.222656 " clip-rule="nonzero"/></clipPath><clipPath id="id61"><path d="M 43.332031 69.539062 L 59.390625 18.769531 L 10.761719 3.386719 L -5.296875 54.160156 Z M 43.332031 69.539062 " clip-rule="nonzero"/></clipPath><clipPath id="id62"><path d="M 23 15 L 34 15 L 34 17 L 23 17 Z M 23 15 " clip-rule="nonzero"/></clipPath><clipPath id="id63"><path d="M -5.09375 54.222656 L 10.964844 3.453125 L 59.589844 18.832031 L 43.53125 69.601562 Z M -5.09375 54.222656 " clip-rule="nonzero"/></clipPath><clipPath id="id64"><path d="M 43.332031 69.539062 L 59.390625 18.769531 L 10.761719 3.386719 L -5.296875 54.160156 Z M 43.332031 69.539062 " clip-rule="nonzero"/></clipPath><clipPath id="id65"><path d="M 20 61 L 24 61 L 24 63 L 20 63 Z M 20 61 " clip-rule="nonzero"/></clipPath><clipPath id="id66"><path d="M -5.09375 54.222656 L 10.964844 3.453125 L 59.589844 18.832031 L 43.53125 69.601562 Z M -5.09375 54.222656 " clip-rule="nonzero"/></clipPath><clipPath id="id67"><path d="M 43.332031 69.539062 L 59.390625 18.769531 L 10.761719 3.386719 L -5.296875 54.160156 Z M 43.332031 69.539062 " clip-rule="nonzero"/></clipPath><clipPath id="id68"><path d="M 16 60 L 19 60 L 19 62 L 16 62 Z M 16 60 " clip-rule="nonzero"/></clipPath><clipPath id="id69"><path d="M -5.09375 54.222656 L 10.964844 3.453125 L 59.589844 18.832031 L 43.53125 69.601562 Z M -5.09375 54.222656 " clip-rule="nonzero"/></clipPath><clipPath id="id70"><path d="M 43.332031 69.539062 L 59.390625 18.769531 L 10.761719 3.386719 L -5.296875 54.160156 Z M 43.332031 69.539062 " clip-rule="nonzero"/></clipPath><clipPath id="id71"><path d="M 14 58 L 15 58 L 15 60 L 14 60 Z M 14 58 " clip-rule="nonzero"/></clipPath><clipPath id="id72"><path d="M -5.09375 54.222656 L 10.964844 3.453125 L 59.589844 18.832031 L 43.53125 69.601562 Z M -5.09375 54.222656 " clip-rule="nonzero"/></clipPath><clipPath id="id73"><path d="M 43.332031 69.539062 L 59.390625 18.769531 L 10.761719 3.386719 L -5.296875 54.160156 Z M 43.332031 69.539062 " clip-rule="nonzero"/></clipPath><clipPath id="id74"><path d="M 13 57 L 14 57 L 14 59 L 13 59 Z M 13 57 " clip-rule="nonzero"/></clipPath><clipPath id="id75"><path d="M -5.09375 54.222656 L 10.964844 3.453125 L 59.589844 18.832031 L 43.53125 69.601562 Z M -5.09375 54.222656 " clip-rule="nonzero"/></clipPath><clipPath id="id76"><path d="M 43.332031 69.539062 L 59.390625 18.769531 L 10.761719 3.386719 L -5.296875 54.160156 Z M 43.332031 69.539062 " clip-rule="nonzero"/></clipPath><clipPath id="id77"><path d="M 7 52 L 13 52 L 13 58 L 7 58 Z M 7 52 " clip-rule="nonzero"/></clipPath><clipPath id="id78"><path d="M -5.09375 54.222656 L 10.964844 3.453125 L 59.589844 18.832031 L 43.53125 69.601562 Z M -5.09375 54.222656 " clip-rule="nonzero"/></clipPath><clipPath id="id79"><path d="M 43.332031 69.539062 L 59.390625 18.769531 L 10.761719 3.386719 L -5.296875 54.160156 Z M 43.332031 69.539062 " clip-rule="nonzero"/></clipPath><clipPath id="id80"><path d="M 8 52 L 9 52 L 9 53 L 8 53 Z M 8 52 " clip-rule="nonzero"/></clipPath><clipPath id="id81"><path d="M -5.09375 54.222656 L 10.964844 3.453125 L 59.589844 18.832031 L 43.53125 69.601562 Z M -5.09375 54.222656 " clip-rule="nonzero"/></clipPath><clipPath id="id82"><path d="M 43.332031 69.539062 L 59.390625 18.769531 L 10.761719 3.386719 L -5.296875 54.160156 Z M 43.332031 69.539062 " clip-rule="nonzero"/></clipPath><clipPath id="id83"><path d="M 40 17 L 41 17 L 41 18 L 40 18 Z M 40 17 " clip-rule="nonzero"/></clipPath><clipPath id="id84"><path d="M -5.09375 54.222656 L 10.964844 3.453125 L 59.589844 18.832031 L 43.53125 69.601562 Z M -5.09375 54.222656 " clip-rule="nonzero"/></clipPath><clipPath id="id85"><path d="M 43.332031 69.539062 L 59.390625 18.769531 L 10.761719 3.386719 L -5.296875 54.160156 Z M 43.332031 69.539062 " clip-rule="nonzero"/></clipPath><clipPath id="id86"><path d="M 6 50 L 8 50 L 8 53 L 6 53 Z M 6 50 " clip-rule="nonzero"/></clipPath><clipPath id="id87"><path d="M -5.09375 54.222656 L 10.964844 3.453125 L 59.589844 18.832031 L 43.53125 69.601562 Z M -5.09375 54.222656 " clip-rule="nonzero"/></clipPath><clipPath id="id88"><path d="M 43.332031 69.539062 L 59.390625 18.769531 L 10.761719 3.386719 L -5.296875 54.160156 Z M 43.332031 69.539062 " clip-rule="nonzero"/></clipPath><clipPath id="id89"><path d="M 4 47 L 6 47 L 6 50 L 4 50 Z M 4 47 " clip-rule="nonzero"/></clipPath><clipPath id="id90"><path d="M -5.09375 54.222656 L 10.964844 3.453125 L 59.589844 18.832031 L 43.53125 69.601562 Z M -5.09375 54.222656 " clip-rule="nonzero"/></clipPath><clipPath id="id91"><path d="M 43.332031 69.539062 L 59.390625 18.769531 L 10.761719 3.386719 L -5.296875 54.160156 Z M 43.332031 69.539062 " clip-rule="nonzero"/></clipPath><clipPath id="id92"><path d="M 3 46 L 5 46 L 5 48 L 3 48 Z M 3 46 " clip-rule="nonzero"/></clipPath><clipPath id="id93"><path d="M -5.09375 54.222656 L 10.964844 3.453125 L 59.589844 18.832031 L 43.53125 69.601562 Z M -5.09375 54.222656 " clip-rule="nonzero"/></clipPath><clipPath id="id94"><path d="M 43.332031 69.539062 L 59.390625 18.769531 L 10.761719 3.386719 L -5.296875 54.160156 Z M 43.332031 69.539062 " clip-rule="nonzero"/></clipPath><clipPath id="id95"><path d="M 98.695312 32.464844 L 104.695312 32.464844 L 104.695312 42.964844 L 98.695312 42.964844 Z M 98.695312 32.464844 " clip-rule="nonzero"/></clipPath><mask id="id96"><g filter="url(#id1)"><rect x="-18.75" width="225" fill="#000000" y="-7.5" height="89.999996" fill-opacity="0.2"/></g></mask><clipPath id="id97"><path d="M 0.945312 0.476562 L 17.445312 0.476562 L 17.445312 16.976562 L 0.945312 16.976562 Z M 0.945312 0.476562 " clip-rule="nonzero"/></clipPath><clipPath id="id98"><rect x="0" width="18" y="0" height="18"/></clipPath></defs><g fill="#000000" fill-opacity="1"><g transform="translate(8.871845, 45.120912)"><g><path d="M 2.703125 0 L 2.703125 -19.078125 L 4.03125 -19.078125 L 4.03125 -1.25 L 13.125 -1.25 L 13.125 0 Z M 2.703125 0 "/></g></g></g><g fill="#000000" fill-opacity="1"><g transform="translate(22.582032, 45.120912)"><g><path d="M 14.109375 -7.109375 C 14.109375 -4.796875 13.546875 -2.988281 12.421875 -1.6875 C 11.296875 -0.382812 9.75 0.265625 7.78125 0.265625 C 6.53125 0.265625 5.429688 -0.0351562 4.484375 -0.640625 C 3.535156 -1.242188 2.804688 -2.101562 2.296875 -3.21875 C 1.796875 -4.34375 1.546875 -5.640625 1.546875 -7.109375 C 1.546875 -9.421875 2.109375 -11.222656 3.234375 -12.515625 C 4.359375 -13.804688 5.898438 -14.453125 7.859375 -14.453125 C 9.804688 -14.453125 11.332031 -13.796875 12.4375 -12.484375 C 13.550781 -11.179688 14.109375 -9.390625 14.109375 -7.109375 Z M 2.90625 -7.109375 C 2.90625 -5.160156 3.332031 -3.640625 4.1875 -2.546875 C 5.050781 -1.453125 6.265625 -0.90625 7.828125 -0.90625 C 9.390625 -0.90625 10.597656 -1.453125 11.453125 -2.546875 C 12.316406 -3.640625 12.75 -5.160156 12.75 -7.109375 C 12.75 -9.066406 12.316406 -10.582031 11.453125 -11.65625 C 10.585938 -12.738281 9.367188 -13.28125 7.796875 -13.28125 C 6.234375 -13.28125 5.023438 -12.742188 4.171875 -11.671875 C 3.328125 -10.597656 2.90625 -9.078125 2.90625 -7.109375 Z M 2.90625 -7.109375 "/></g></g></g><g fill="#000000" fill-opacity="1"><g transform="translate(38.235865, 45.120912)"><g><path d="M 14.109375 -7.109375 C 14.109375 -4.796875 13.546875 -2.988281 12.421875 -1.6875 C 11.296875 -0.382812 9.75 0.265625 7.78125 0.265625 C 6.53125 0.265625 5.429688 -0.0351562 4.484375 -0.640625 C 3.535156 -1.242188 2.804688 -2.101562 2.296875 -3.21875 C 1.796875 -4.34375 1.546875 -5.640625 1.546875 -7.109375 C 1.546875 -9.421875 2.109375 -11.222656 3.234375 -12.515625 C 4.359375 -13.804688 5.898438 -14.453125 7.859375 -14.453125 C 9.804688 -14.453125 11.332031 -13.796875 12.4375 -12.484375 C 13.550781 -11.179688 14.109375 -9.390625 14.109375 -7.109375 Z M 2.90625 -7.109375 C 2.90625 -5.160156 3.332031 -3.640625 4.1875 -2.546875 C 5.050781 -1.453125 6.265625 -0.90625 7.828125 -0.90625 C 9.390625 -0.90625 10.597656 -1.453125 11.453125 -2.546875 C 12.316406 -3.640625 12.75 -5.160156 12.75 -7.109375 C 12.75 -9.066406 12.316406 -10.582031 11.453125 -11.65625 C 10.585938 -12.738281 9.367188 -13.28125 7.796875 -13.28125 C 6.234375 -13.28125 5.023438 -12.742188 4.171875 -11.671875 C 3.328125 -10.597656 2.90625 -9.078125 2.90625 -7.109375 Z M 2.90625 -7.109375 "/></g></g></g><g fill="#000000" fill-opacity="1"><g transform="translate(53.889697, 45.120912)"><g><path d="M 8.4375 0.265625 C 6.257812 0.265625 4.671875 -0.550781 3.671875 -2.1875 L 3.578125 -2.1875 L 3.609375 -1.09375 C 3.648438 -0.445312 3.671875 0.253906 3.671875 1.015625 L 3.671875 6.421875 L 2.375 6.421875 L 2.375 -14.1875 L 3.46875 -14.1875 L 3.71875 -12.15625 L 3.796875 -12.15625 C 4.765625 -13.6875 6.320312 -14.453125 8.46875 -14.453125 C 10.382812 -14.453125 11.84375 -13.820312 12.84375 -12.5625 C 13.84375 -11.3125 14.34375 -9.484375 14.34375 -7.078125 C 14.34375 -4.753906 13.816406 -2.945312 12.765625 -1.65625 C 11.710938 -0.375 10.269531 0.265625 8.4375 0.265625 Z M 8.421875 -0.890625 C 9.867188 -0.890625 10.988281 -1.425781 11.78125 -2.5 C 12.582031 -3.582031 12.984375 -5.09375 12.984375 -7.03125 C 12.984375 -11.195312 11.476562 -13.28125 8.46875 -13.28125 C 6.8125 -13.28125 5.597656 -12.820312 4.828125 -11.90625 C 4.054688 -11 3.671875 -9.519531 3.671875 -7.46875 L 3.671875 -7.0625 C 3.671875 -4.84375 4.039062 -3.257812 4.78125 -2.3125 C 5.519531 -1.363281 6.734375 -0.890625 8.421875 -0.890625 Z M 8.421875 -0.890625 "/></g></g></g><g fill="#000000" fill-opacity="1"><g transform="translate(69.791421, 45.120912)"><g/></g></g><g fill="#000000" fill-opacity="1"><g transform="translate(76.731287, 45.120912)"><g><path d="M 4.03125 0 L 2.703125 0 L 2.703125 -19.078125 L 13.15625 -19.078125 L 13.15625 -17.84375 L 4.03125 -17.84375 L 4.03125 -9.765625 L 12.640625 -9.765625 L 12.640625 -8.515625 L 4.03125 -8.515625 Z M 4.03125 0 "/></g></g></g><g fill="#000000" fill-opacity="1"><g transform="translate(90.116309, 45.120912)"><g/></g></g><g fill="#000000" fill-opacity="1"><g transform="translate(97.056175, 45.120912)"><g/></g></g><g fill="#000000" fill-opacity="1"><g transform="translate(103.99604, 45.120912)"><g/></g></g><g fill="#000000" fill-opacity="1"><g transform="translate(110.877912, 45.120912)"><g><path d="M 7.953125 -14.453125 C 8.554688 -14.453125 9.203125 -14.390625 9.890625 -14.265625 L 9.640625 -13.03125 C 9.046875 -13.175781 8.429688 -13.25 7.796875 -13.25 C 6.585938 -13.25 5.597656 -12.734375 4.828125 -11.703125 C 4.054688 -10.679688 3.671875 -9.390625 3.671875 -7.828125 L 3.671875 0 L 2.375 0 L 2.375 -14.1875 L 3.46875 -14.1875 L 3.59375 -11.625 L 3.6875 -11.625 C 4.269531 -12.664062 4.890625 -13.394531 5.546875 -13.8125 C 6.210938 -14.238281 7.015625 -14.453125 7.953125 -14.453125 Z M 7.953125 -14.453125 "/></g></g></g><g fill="#000000" fill-opacity="1"><g transform="translate(121.274704, 45.120912)"><g><path d="M 13.71875 0 L 10.609375 -9.484375 C 10.410156 -10.128906 10.15625 -11.070312 9.84375 -12.3125 L 9.765625 -12.3125 L 9.484375 -11.34375 L 8.890625 -9.453125 L 5.734375 0 L 4.46875 0 L 0.40625 -14.1875 L 1.78125 -14.1875 L 4.0625 -5.96875 C 4.59375 -3.925781 4.9375 -2.425781 5.09375 -1.46875 L 5.171875 -1.46875 C 5.691406 -3.507812 6.066406 -4.863281 6.296875 -5.53125 L 9.21875 -14.1875 L 10.390625 -14.1875 L 13.171875 -5.5625 C 13.796875 -3.507812 14.179688 -2.15625 14.328125 -1.5 L 14.40625 -1.5 C 14.46875 -2.0625 14.816406 -3.578125 15.453125 -6.046875 L 17.609375 -14.1875 L 18.921875 -14.1875 L 15.0625 0 Z M 13.71875 0 "/></g></g></g><g fill="#000000" fill-opacity="1"><g transform="translate(140.594182, 45.120912)"><g><path d="M 10.984375 0 L 10.65625 -2.25 L 10.546875 -2.25 C 9.835938 -1.332031 9.109375 -0.679688 8.359375 -0.296875 C 7.609375 0.078125 6.71875 0.265625 5.6875 0.265625 C 4.289062 0.265625 3.207031 -0.0859375 2.4375 -0.796875 C 1.664062 -1.515625 1.28125 -2.503906 1.28125 -3.765625 C 1.28125 -5.148438 1.851562 -6.222656 3 -6.984375 C 4.15625 -7.753906 5.828125 -8.160156 8.015625 -8.203125 L 10.71875 -8.28125 L 10.71875 -9.21875 C 10.71875 -10.570312 10.441406 -11.59375 9.890625 -12.28125 C 9.335938 -12.96875 8.453125 -13.3125 7.234375 -13.3125 C 5.921875 -13.3125 4.5625 -12.945312 3.15625 -12.21875 L 2.671875 -13.328125 C 4.234375 -14.054688 5.773438 -14.421875 7.296875 -14.421875 C 8.847656 -14.421875 10.007812 -14.015625 10.78125 -13.203125 C 11.550781 -12.398438 11.9375 -11.144531 11.9375 -9.4375 L 11.9375 0 Z M 5.765625 -0.90625 C 7.273438 -0.90625 8.46875 -1.335938 9.34375 -2.203125 C 10.21875 -3.078125 10.65625 -4.28125 10.65625 -5.8125 L 10.65625 -7.21875 L 8.1875 -7.109375 C 6.1875 -7.015625 4.757812 -6.703125 3.90625 -6.171875 C 3.0625 -5.648438 2.640625 -4.832031 2.640625 -3.71875 C 2.640625 -2.832031 2.910156 -2.140625 3.453125 -1.640625 C 4.003906 -1.148438 4.773438 -0.90625 5.765625 -0.90625 Z M 5.765625 -0.90625 "/></g></g></g><g fill="#000000" fill-opacity="1"><g transform="translate(154.747894, 45.120912)"><g><path d="M 7.953125 -14.453125 C 8.554688 -14.453125 9.203125 -14.390625 9.890625 -14.265625 L 9.640625 -13.03125 C 9.046875 -13.175781 8.429688 -13.25 7.796875 -13.25 C 6.585938 -13.25 5.597656 -12.734375 4.828125 -11.703125 C 4.054688 -10.679688 3.671875 -9.390625 3.671875 -7.828125 L 3.671875 0 L 2.375 0 L 2.375 -14.1875 L 3.46875 -14.1875 L 3.59375 -11.625 L 3.6875 -11.625 C 4.269531 -12.664062 4.890625 -13.394531 5.546875 -13.8125 C 6.210938 -14.238281 7.015625 -14.453125 7.953125 -14.453125 Z M 7.953125 -14.453125 "/></g></g></g><g fill="#000000" fill-opacity="1"><g transform="translate(165.144686, 45.120912)"><g><path d="M 7.5625 -14.453125 C 8.59375 -14.453125 9.476562 -14.265625 10.21875 -13.890625 C 10.96875 -13.515625 11.640625 -12.875 12.234375 -11.96875 L 12.3125 -11.96875 C 12.257812 -13.070312 12.234375 -14.148438 12.234375 -15.203125 L 12.234375 -20.296875 L 13.515625 -20.296875 L 13.515625 0 L 12.671875 0 L 12.34375 -2.171875 L 12.234375 -2.171875 C 11.160156 -0.546875 9.613281 0.265625 7.59375 0.265625 C 5.632812 0.265625 4.132812 -0.34375 3.09375 -1.5625 C 2.0625 -2.78125 1.546875 -4.554688 1.546875 -6.890625 C 1.546875 -9.335938 2.054688 -11.207031 3.078125 -12.5 C 4.109375 -13.800781 5.601562 -14.453125 7.5625 -14.453125 Z M 7.5625 -13.28125 C 6.019531 -13.28125 4.859375 -12.734375 4.078125 -11.640625 C 3.296875 -10.554688 2.90625 -8.984375 2.90625 -6.921875 C 2.90625 -2.898438 4.46875 -0.890625 7.59375 -0.890625 C 9.195312 -0.890625 10.367188 -1.351562 11.109375 -2.28125 C 11.859375 -3.207031 12.234375 -4.742188 12.234375 -6.890625 L 12.234375 -7.109375 C 12.234375 -9.296875 11.863281 -10.867188 11.125 -11.828125 C 10.394531 -12.796875 9.207031 -13.28125 7.5625 -13.28125 Z M 7.5625 -13.28125 "/></g></g></g><g fill="#000000" fill-opacity="1"><g transform="translate(181.046409, 45.120912)"><g><path d="M 2.109375 -1.015625 C 2.109375 -1.867188 2.457031 -2.296875 3.15625 -2.296875 C 3.875 -2.296875 4.234375 -1.867188 4.234375 -1.015625 C 4.234375 -0.160156 3.875 0.265625 3.15625 0.265625 C 2.457031 0.265625 2.109375 -0.160156 2.109375 -1.015625 Z M 2.109375 -1.015625 "/></g></g></g><g clip-path="url(#id2)"><g clip-path="url(#id3)"><g clip-path="url(#id4)"><path fill="#cb6ce6" d="M 24.535156 60.359375 C 24.644531 60.289062 23.710938 60 22.738281 59.734375 C 22.242188 59.621094 21.765625 59.421875 21.382812 59.289062 C 21.003906 59.15625 20.738281 59.066406 20.703125 59.054688 C 20.191406 58.972656 18.945312 58.3125 18.21875 57.992188 C 17.859375 57.828125 17.660156 57.679688 17.730469 57.753906 C 17.84375 57.847656 17.960938 57.929688 18.082031 58.003906 C 18.292969 58.117188 18.609375 58.285156 19.039062 58.519531 C 19.570312 58.808594 20.105469 59.148438 20.605469 59.289062 C 20.671875 59.3125 20.925781 59.421875 21.269531 59.566406 C 21.621094 59.703125 22.050781 59.925781 22.519531 60.03125 C 23.445312 60.277344 24.367188 60.53125 24.535156 60.359375 Z M 24.535156 60.359375 " fill-opacity="1" fill-rule="evenodd"/></g></g></g><g clip-path="url(#id5)"><g clip-path="url(#id6)"><g clip-path="url(#id7)"><path fill="#cb6ce6" d="M 7.335938 41.089844 C 7.632812 41.261719 7.285156 38.605469 7.265625 40.347656 C 7.265625 40.453125 7.238281 41.035156 7.335938 41.089844 Z M 7.335938 41.089844 " fill-opacity="1" fill-rule="evenodd"/></g></g></g><g clip-path="url(#id8)"><g clip-path="url(#id9)"><g clip-path="url(#id10)"><path fill="#cb6ce6" d="M 15.050781 58.445312 C 14.433594 58.050781 13.859375 57.570312 13.265625 57.097656 C 12.964844 56.871094 12.699219 56.597656 12.429688 56.324219 L 11.613281 55.503906 L 11.199219 55.097656 C 11.066406 54.953125 10.945312 54.800781 10.816406 54.65625 C 10.5625 54.359375 10.300781 54.066406 10.03125 53.777344 C 9.464844 53.222656 9 52.585938 8.421875 52.007812 C 7.683594 51.242188 7.71875 52.070312 7.300781 51.683594 C 6.71875 51.054688 6.132812 50.296875 5.675781 49.421875 C 5.460938 48.980469 5.257812 48.515625 5.0625 48.046875 C 4.96875 47.808594 4.859375 47.574219 4.78125 47.328125 L 4.570312 46.585938 L 4.171875 45.097656 C 4.070312 44.597656 3.992188 44.097656 3.902344 43.613281 C 3.6875 42.652344 3.609375 41.714844 3.4375 40.871094 C 3.394531 40.605469 3.167969 40.257812 3.011719 39.871094 C 2.839844 39.488281 2.660156 39.070312 2.585938 38.695312 C 2.316406 37.527344 2.425781 36.347656 2.476562 35.152344 C 2.546875 34.554688 2.65625 33.960938 2.746094 33.351562 L 2.886719 32.429688 L 3.085938 31.503906 L 3.296875 30.527344 C 3.363281 30.183594 3.453125 29.847656 3.570312 29.519531 C 3.796875 28.84375 4.042969 28.136719 4.308594 27.410156 L 5.339844 25.257812 C 5.71875 24.53125 6.191406 23.839844 6.632812 23.109375 C 8.511719 20.269531 11.078125 17.640625 13.898438 15.5625 C 14.53125 15.054688 14.851562 14.851562 14.894531 14.78125 C 14.9375 14.707031 14.714844 14.785156 14.335938 14.972656 C 13.976562 15.183594 13.460938 15.503906 12.90625 15.863281 C 12.632812 16.046875 12.335938 16.230469 12.058594 16.4375 L 11.269531 17.085938 C 7.546875 20.191406 5.058594 23.914062 3.675781 27.871094 C 2.25 31.90625 1.890625 36.039062 2.601562 40.261719 C 2.609375 40.308594 2.761719 41.285156 2.886719 42.238281 C 2.929688 42.71875 3.050781 43.179688 3.101562 43.519531 C 3.148438 43.863281 3.167969 44.078125 3.101562 44.058594 C 3.019531 44.03125 2.871094 43.675781 2.691406 43.136719 C 2.585938 42.828125 2.503906 42.515625 2.449219 42.195312 L 2.230469 41.074219 C 2.054688 40.296875 2.011719 39.46875 1.949219 38.75 L 1.871094 37.773438 C 1.847656 37.488281 1.867188 37.25 1.859375 37.078125 C 1.722656 33.59375 2.46875 29.648438 4.070312 26.148438 C 5.644531 22.628906 8.019531 19.621094 10.375 17.472656 C 12.527344 15.441406 14.921875 13.964844 17.296875 12.796875 C 19.675781 11.601562 22.148438 10.9375 24.570312 10.492188 L 26.390625 10.265625 C 26.691406 10.222656 26.992188 10.203125 27.296875 10.207031 L 28.203125 10.1875 C 29.40625 10.125 30.597656 10.265625 31.777344 10.390625 L 32.21875 10.4375 L 32.652344 10.527344 L 33.523438 10.710938 L 34.386719 10.90625 C 34.675781 10.964844 34.960938 11.042969 35.238281 11.140625 C 36.363281 11.53125 37.480469 11.882812 38.527344 12.457031 C 38.777344 12.585938 39.058594 12.746094 39.355469 12.933594 L 39.808594 13.234375 C 39.960938 13.347656 40.105469 13.476562 40.257812 13.609375 C 40.855469 14.132812 41.464844 14.703125 41.96875 15.289062 C 42.21875 15.613281 42.808594 16.15625 43.121094 16.75 C 43.429688 17.34375 43.449219 17.972656 42.648438 18.523438 C 42.488281 18.636719 42.144531 18.449219 41.695312 18.085938 C 41.242188 17.722656 40.691406 17.152344 40.015625 16.640625 C 39.683594 16.367188 39.339844 16.085938 39 15.804688 C 38.660156 15.523438 38.28125 15.300781 37.929688 15.058594 C 37.226562 14.597656 36.574219 14.175781 36.078125 14.019531 C 35.253906 13.726562 34.429688 13.367188 33.578125 13.191406 C 32.730469 12.988281 31.894531 12.757812 31.074219 12.6875 C 29.4375 12.429688 27.914062 12.472656 26.714844 12.5625 C 25.640625 12.726562 24.5625 12.8125 23.527344 13.09375 C 23.003906 13.21875 22.476562 13.3125 21.964844 13.460938 L 20.441406 13.949219 C 20.1875 14.035156 19.933594 14.101562 19.683594 14.199219 L 18.953125 14.511719 L 17.496094 15.128906 L 16.113281 15.878906 C 15.648438 16.125 15.1875 16.367188 14.765625 16.675781 C 11.261719 18.933594 8.386719 22.007812 6.519531 25.476562 C 4.730469 28.804688 3.878906 32.609375 3.933594 36.457031 C 3.953125 36.9375 3.925781 37.417969 3.980469 37.902344 L 4.144531 39.351562 L 4.230469 40.078125 L 4.382812 40.796875 C 4.488281 41.277344 4.589844 41.757812 4.695312 42.242188 C 5.238281 44.148438 5.890625 46.0625 6.898438 47.863281 C 7.109375 48.25 7.296875 48.648438 7.527344 49.03125 L 8.257812 50.164062 C 8.714844 50.945312 9.328125 51.632812 9.882812 52.371094 C 10.148438 52.75 10.484375 53.074219 10.804688 53.417969 C 11.121094 53.761719 11.441406 54.101562 11.761719 54.445312 C 12.113281 54.757812 12.46875 55.074219 12.828125 55.390625 C 13.1875 55.699219 13.519531 56.042969 13.925781 56.3125 C 16.964844 58.640625 20.625 60.421875 24.5625 61.148438 C 27.125 61.667969 30.097656 61.671875 33.027344 61.144531 C 35.960938 60.632812 38.835938 59.597656 41.398438 58.300781 C 41.875 58.113281 42.296875 57.777344 42.757812 57.492188 C 43.199219 57.183594 43.679688 56.917969 44.0625 56.578125 C 44.855469 55.933594 45.628906 55.441406 46.144531 55.199219 C 46.273438 55.148438 46.132812 55.332031 45.84375 55.65625 C 45.53125 55.953125 45.042969 56.363281 44.527344 56.8125 C 44.027344 57.285156 43.402344 57.675781 42.902344 58.066406 C 42.40625 58.453125 41.992188 58.785156 41.785156 58.96875 L 40.34375 59.789062 C 39.859375 60.0625 39.324219 60.253906 38.8125 60.492188 L 38.035156 60.835938 C 37.773438 60.941406 37.496094 61.019531 37.226562 61.113281 C 36.679688 61.285156 36.136719 61.480469 35.582031 61.640625 C 33.339844 62.226562 30.980469 62.507812 28.601562 62.507812 C 26.21875 62.449219 23.839844 62.058594 21.535156 61.402344 C 19.253906 60.679688 17.09375 59.695312 15.050781 58.445312 Z M 35.644531 61.359375 C 35.714844 61.210938 34.871094 61.070312 34.78125 61.261719 C 34.699219 61.414062 35.550781 61.554688 35.644531 61.359375 Z M 34.433594 61.585938 C 34.433594 61.585938 33.46875 61.359375 33.382812 61.519531 C 33.367188 61.539062 34.125 62.164062 34.433594 61.585938 Z M 32.8125 61.839844 C 32.894531 61.703125 32.257812 61.5 32.171875 61.636719 C 32.085938 61.773438 32.722656 61.980469 32.8125 61.84375 Z M 31.386719 61.972656 C 31.476562 61.835938 30.859375 61.636719 30.761719 61.75 C 30.714844 61.816406 30.84375 61.910156 31 61.976562 C 31.15625 62.03125 31.335938 62.042969 31.386719 61.972656 Z M 25.460938 61.847656 C 25.777344 61.570312 23.078125 61.28125 24.859375 61.730469 C 24.9375 61.75 25.402344 61.902344 25.460938 61.847656 Z M 20.867188 60.785156 C 20.996094 60.707031 20.65625 60.347656 20.582031 60.390625 C 20.445312 60.464844 20.785156 60.828125 20.867188 60.785156 Z M 11.667969 55.042969 C 9.636719 52.796875 7.988281 50.523438 6.503906 48.253906 C 6.316406 47.816406 6.230469 47.546875 6.035156 47.085938 C 5.609375 45.835938 5.480469 45.886719 5.550781 46.386719 C 5.59375 46.894531 5.988281 47.808594 6.503906 48.253906 C 7.730469 50.960938 9.519531 53.496094 11.667969 55.042969 C 12.527344 56.359375 12.699219 54.972656 11.667969 55.042969 Z M 5.117188 45.824219 C 4.960938 45.757812 4.988281 45.320312 5.007812 44.890625 C 5.046875 44.453125 5.105469 44.011719 4.90625 43.90625 C 4.816406 44.183594 4.753906 44.460938 4.71875 44.75 C 4.679688 45.1875 4.769531 45.671875 5.117188 45.824219 Z M 4.320312 43.59375 C 4.519531 43.695312 4.359375 42.851562 4.257812 42.289062 C 4.179688 41.722656 4.035156 41.449219 4.160156 42.75 C 4.175781 42.871094 4.210938 43.53125 4.320312 43.59375 Z M 3.734375 41.28125 C 3.878906 41.378906 4.089844 40.527344 3.90625 40.402344 C 3.761719 40.296875 3.546875 41.15625 3.734375 41.28125 Z M 3.359375 39.347656 C 3.691406 39.621094 3.457031 36.742188 3.359375 38.695312 C 3.355469 38.78125 3.296875 39.292969 3.359375 39.347656 Z M 3.164062 36.9375 C 3.472656 37.246094 3.605469 33.441406 3.246094 36.066406 C 3.230469 36.191406 3.074219 36.851562 3.164062 36.9375 Z M 3.320312 33.851562 C 3.464844 34.023438 3.644531 33.160156 3.746094 32.582031 C 3.816406 32.292969 3.847656 32.078125 3.8125 32.089844 C 3.792969 32.101562 3.636719 32.335938 3.488281 32.984375 C 3.460938 33.113281 3.242188 33.753906 3.320312 33.851562 Z M 16.113281 14.339844 C 16.070312 14.507812 16.792969 14.425781 16.835938 14.257812 C 16.878906 14.089844 16.15625 14.167969 16.113281 14.339844 Z M 17.359375 13.753906 C 17.3125 13.902344 17.855469 13.90625 17.886719 13.816406 C 17.941406 13.664062 17.390625 13.664062 17.359375 13.753906 Z M 17.359375 13.753906 " fill-opacity="1" fill-rule="evenodd"/></g></g></g><g clip-path="url(#id11)"><g clip-path="url(#id12)"><g clip-path="url(#id13)"><path fill="#cb6ce6" d="M 17.234375 57.753906 C 17.457031 57.660156 16.007812 56.859375 14.632812 55.757812 C 14.457031 55.625 14.273438 55.5 14.101562 55.359375 C 13.9375 55.214844 13.773438 55.066406 13.617188 54.925781 L 12.722656 54.125 C 12.488281 53.925781 12.269531 53.710938 12.066406 53.476562 L 11.734375 53.121094 C 11.421875 52.789062 11.140625 52.433594 10.886719 52.058594 C 10.6875 51.71875 10.523438 51.433594 10.367188 51.230469 C 10.070312 50.847656 9.78125 50.664062 9.535156 50.457031 C 9.308594 50.242188 9.140625 49.992188 9.070312 49.507812 C 9.09375 49.65625 10.316406 50.335938 9.347656 48.925781 C 9.3125 48.867188 8.488281 48.457031 8.683594 48.179688 C 8.347656 48.65625 8.625 49.339844 9.023438 50.019531 C 9.125 50.191406 9.234375 50.359375 9.347656 50.519531 L 9.730469 50.960938 C 9.980469 51.242188 10.210938 51.496094 10.367188 51.699219 C 10.53125 51.910156 10.6875 52.132812 10.871094 52.335938 L 11.441406 52.933594 C 11.832031 53.320312 12.179688 53.746094 12.582031 54.082031 C 12.984375 54.421875 13.355469 54.746094 13.695312 55.035156 C 13.863281 55.179688 14.015625 55.324219 14.167969 55.441406 L 14.601562 55.753906 C 14.820312 55.914062 15.324219 56.472656 15.847656 56.988281 C 16.410156 57.441406 16.992188 57.839844 17.234375 57.753906 Z M 17.234375 57.753906 " fill-opacity="1" fill-rule="evenodd"/></g></g></g><g clip-path="url(#id14)"><g clip-path="url(#id15)"><g clip-path="url(#id16)"><path fill="#cb6ce6" d="M 6.960938 39.429688 C 7.304688 39.664062 7.070312 36.414062 6.964844 38.679688 C 6.960938 38.789062 6.867188 39.363281 6.960938 39.429688 Z M 6.960938 39.429688 " fill-opacity="1" fill-rule="evenodd"/></g></g></g><g clip-path="url(#id17)"><g clip-path="url(#id18)"><g clip-path="url(#id19)"><path fill="#cb6ce6" d="M 6.726562 37.542969 C 6.484375 37.324219 7.476562 36.152344 7.148438 35.878906 C 6.988281 36.078125 6.851562 36.296875 6.738281 36.527344 C 6.5625 36.886719 6.453125 37.316406 6.726562 37.542969 Z M 6.726562 37.542969 " fill-opacity="1" fill-rule="evenodd"/></g></g></g><g clip-path="url(#id20)"><g clip-path="url(#id21)"><g clip-path="url(#id22)"><path fill="#cb6ce6" d="M 6.058594 41.238281 C 6.136719 41.285156 6.242188 41.632812 6.367188 42.136719 C 6.539062 42.632812 6.730469 43.285156 6.910156 43.960938 C 7.347656 45.296875 7.851562 46.703125 8.015625 47.195312 C 7.84375 46.523438 8.070312 47.433594 8.199219 48.167969 C 8.25 48.542969 8.335938 48.839844 8.28125 48.882812 C 8.230469 48.925781 8.042969 48.703125 7.757812 47.945312 L 7.316406 46.832031 C 7.320312 46.359375 7.332031 45.972656 7.261719 45.71875 C 7.199219 45.460938 7.101562 45.320312 7.023438 45.308594 C 6.949219 45.292969 6.890625 45.402344 6.914062 45.65625 C 6.933594 45.820312 6.96875 45.984375 7.019531 46.140625 C 7.085938 46.386719 7.183594 46.613281 7.3125 46.832031 C 6.984375 46.667969 6.777344 46.410156 6.691406 46.050781 C 6.625 45.769531 6.65625 45.480469 6.695312 45.226562 C 6.78125 44.714844 6.867188 44.335938 6.277344 44.230469 C 6.496094 44.269531 6.160156 44.75 6.125 44.683594 C 5.726562 43.921875 6.058594 43.632812 5.722656 42.699219 C 5.980469 42.78125 5.902344 42.367188 5.894531 41.949219 C 5.886719 41.53125 5.855469 41.117188 6.058594 41.238281 Z M 6.238281 44.03125 C 6.613281 44.210938 5.890625 41.65625 6.128906 43.4375 C 6.136719 43.519531 6.167969 43.996094 6.238281 44.03125 Z M 6.238281 44.03125 " fill-opacity="1" fill-rule="evenodd"/></g></g></g><g clip-path="url(#id23)"><g clip-path="url(#id24)"><g clip-path="url(#id25)"><path fill="#cb6ce6" d="M 47.742188 54.726562 C 47.742188 54.726562 46.78125 55.105469 46.800781 55.28125 C 46.796875 55.304688 47.804688 55.375 47.742188 54.726562 Z M 47.742188 54.726562 " fill-opacity="1" fill-rule="evenodd"/></g></g></g><g clip-path="url(#id26)"><g clip-path="url(#id27)"><g clip-path="url(#id28)"><path fill="#cb6ce6" d="M 46.375 56.054688 C 46.371094 55.976562 46.25 55.976562 46.132812 56.011719 C 46.007812 56.035156 45.886719 56.089844 45.886719 56.136719 C 45.886719 56.289062 46.390625 56.160156 46.375 56.054688 Z M 46.375 56.054688 " fill-opacity="1" fill-rule="evenodd"/></g></g></g><g clip-path="url(#id29)"><g clip-path="url(#id30)"><g clip-path="url(#id31)"><path fill="#cb6ce6" d="M 41.785156 58.972656 C 42.164062 58.953125 42.519531 58.851562 42.847656 58.664062 C 43.0625 58.539062 43.148438 58.417969 43.125 58.355469 C 43.101562 58.289062 42.96875 58.28125 42.746094 58.375 C 42.519531 58.464844 42.21875 58.683594 41.785156 58.972656 Z M 41.785156 58.972656 " fill-opacity="1" fill-rule="evenodd"/></g></g></g><g clip-path="url(#id32)"><g clip-path="url(#id33)"><g clip-path="url(#id34)"><path fill="#cb6ce6" d="M 39.511719 19.804688 C 40.019531 20.390625 39.03125 20.304688 40.257812 20.628906 C 40.460938 20.683594 39.960938 20.113281 39.554688 19.703125 C 39.425781 19.5625 39.28125 19.445312 39.113281 19.355469 C 39.0625 19.351562 39.179688 19.441406 39.511719 19.804688 Z M 39.511719 19.804688 " fill-opacity="1" fill-rule="evenodd"/></g></g></g><g clip-path="url(#id35)"><g clip-path="url(#id36)"><g clip-path="url(#id37)"><path fill="#cb6ce6" d="M 37.839844 18.296875 C 38.347656 19.46875 39.539062 18.855469 37.839844 18.296875 Z M 37.839844 18.296875 " fill-opacity="1" fill-rule="evenodd"/></g></g></g><g clip-path="url(#id38)"><g clip-path="url(#id39)"><g clip-path="url(#id40)"><path fill="#cb6ce6" d="M 40.53125 19.882812 C 40.570312 21.136719 40.5 18.996094 40.53125 19.882812 Z M 40.53125 19.882812 " fill-opacity="1" fill-rule="evenodd"/></g></g></g><g clip-path="url(#id41)"><g clip-path="url(#id42)"><g clip-path="url(#id43)"><path fill="#cb6ce6" d="M 5.230469 40.71875 C 5.453125 41.308594 5.050781 42.523438 5.722656 42.699219 C 5.457031 42.234375 5.613281 41.34375 5.648438 40.796875 C 5.691406 40.242188 5.675781 39.984375 5.230469 40.71875 Z M 5.230469 40.71875 " fill-opacity="1" fill-rule="evenodd"/></g></g></g><g clip-path="url(#id44)"><g clip-path="url(#id45)"><g clip-path="url(#id46)"><path fill="#cb6ce6" d="M 37.839844 18.296875 C 37.566406 17.722656 37.101562 17.644531 36.964844 17.726562 C 36.816406 17.824219 36.976562 18.078125 37.839844 18.296875 Z M 37.839844 18.296875 " fill-opacity="1" fill-rule="evenodd"/></g></g></g><g clip-path="url(#id47)"><g clip-path="url(#id48)"><g clip-path="url(#id49)"><path fill="#cb6ce6" d="M 40.007812 17.425781 C 39.621094 17.097656 39.222656 16.773438 38.808594 16.445312 C 38.601562 16.28125 38.386719 16.132812 38.160156 16.003906 L 37.476562 15.597656 C 36.574219 15.019531 35.566406 14.636719 34.539062 14.234375 C 32.457031 13.5625 30.195312 13.113281 27.902344 13.195312 L 27.035156 13.199219 L 26.179688 13.285156 C 25.605469 13.351562 25.027344 13.390625 24.453125 13.492188 C 23.320312 13.734375 22.171875 13.945312 21.074219 14.351562 C 19.945312 14.667969 18.898438 15.195312 17.828125 15.652344 C 17.3125 15.921875 16.804688 16.214844 16.296875 16.496094 C 16.042969 16.640625 15.78125 16.769531 15.535156 16.925781 L 14.816406 17.417969 C 12.84375 18.679688 11.105469 20.367188 9.601562 22.210938 L 8.527344 23.636719 C 8.199219 24.128906 7.914062 24.648438 7.609375 25.15625 L 7.164062 25.917969 L 6.796875 26.714844 C 6.558594 27.25 6.308594 27.777344 6.09375 28.3125 C 5.746094 29.414062 5.332031 30.476562 5.15625 31.585938 C 5.054688 32.132812 4.90625 32.664062 4.859375 33.210938 L 4.710938 34.816406 C 4.644531 35.34375 4.691406 35.871094 4.691406 36.382812 C 4.710938 36.898438 4.691406 37.402344 4.753906 37.898438 L 4.949219 39.347656 C 4.984375 39.582031 5.011719 39.816406 5.054688 40.046875 L 5.226562 40.71875 L 5.105469 39.988281 L 5.046875 39.246094 L 4.929688 37.738281 C 4.925781 37.234375 4.945312 36.722656 4.953125 36.207031 L 4.964844 35.429688 C 4.976562 35.171875 5.019531 34.914062 5.042969 34.65625 L 5.226562 33.089844 C 5.316406 32.566406 5.445312 32.050781 5.554688 31.523438 L 5.726562 30.734375 C 5.796875 30.476562 5.886719 30.222656 5.96875 29.964844 L 6.480469 28.40625 L 7.148438 26.898438 L 7.488281 26.136719 L 7.902344 25.414062 L 8.75 23.960938 L 9.753906 22.59375 L 10.261719 21.90625 L 10.839844 21.277344 C 11.226562 20.859375 11.605469 20.425781 12.011719 20.019531 C 12.878906 19.269531 13.703125 18.457031 14.679688 17.832031 L 15.746094 17.082031 L 16.125 16.867188 L 17.644531 16.019531 C 18.15625 15.75 18.703125 15.546875 19.234375 15.3125 L 20.035156 14.972656 C 20.308594 14.878906 20.585938 14.796875 20.863281 14.707031 C 23.054688 13.941406 25.378906 13.640625 27.65625 13.582031 L 29.363281 13.609375 C 29.925781 13.65625 30.488281 13.742188 31.046875 13.8125 C 31.324219 13.851562 31.601562 13.878906 31.875 13.925781 L 32.691406 14.125 C 33.230469 14.261719 33.773438 14.371094 34.296875 14.539062 C 35.332031 14.929688 36.367188 15.25 37.308594 15.785156 C 37.78125 16.039062 38.265625 16.246094 38.707031 16.542969 C 39.148438 16.839844 39.574219 17.132812 40.007812 17.425781 Z M 40.007812 17.425781 " fill-opacity="1" fill-rule="evenodd"/></g></g></g><g clip-path="url(#id50)"><g clip-path="url(#id51)"><g clip-path="url(#id52)"><path fill="#cb6ce6" d="M 18.339844 17.824219 C 18.3125 17.988281 18.929688 17.941406 18.972656 17.804688 C 19.007812 17.636719 18.367188 17.652344 18.339844 17.824219 Z M 18.339844 17.824219 " fill-opacity="1" fill-rule="evenodd"/></g></g></g><g clip-path="url(#id53)"><g clip-path="url(#id54)"><g clip-path="url(#id55)"><path fill="#cb6ce6" d="M 34.699219 16.550781 C 34.542969 16.675781 35.246094 16.953125 35.816406 17.117188 C 36.371094 17.335938 36.804688 17.425781 36.144531 17.019531 C 36.183594 16.996094 34.90625 16.398438 34.699219 16.550781 Z M 34.699219 16.550781 " fill-opacity="1" fill-rule="evenodd"/></g></g></g><g clip-path="url(#id56)"><g clip-path="url(#id57)"><g clip-path="url(#id58)"><path fill="#cb6ce6" d="M 38.886719 18.285156 C 38.746094 18.355469 39.117188 18.847656 39.261719 18.773438 C 39.410156 18.699219 39.035156 18.214844 38.886719 18.285156 Z M 38.886719 18.285156 " fill-opacity="1" fill-rule="evenodd"/></g></g></g><g clip-path="url(#id59)"><g clip-path="url(#id60)"><g clip-path="url(#id61)"><path fill="#cb6ce6" d="M 28.027344 63.476562 C 28.148438 63.355469 27.855469 63.253906 27.402344 63.175781 C 26.949219 63.085938 26.332031 63.078125 25.800781 62.972656 C 24.738281 62.820312 23.964844 62.800781 25.457031 63.152344 C 25.472656 63.160156 25.628906 63.203125 25.851562 63.265625 C 25.96875 63.292969 26.097656 63.328125 26.238281 63.363281 C 26.378906 63.386719 26.535156 63.410156 26.683594 63.433594 C 27.296875 63.519531 27.929688 63.582031 28.027344 63.476562 Z M 28.027344 63.476562 " fill-opacity="1" fill-rule="evenodd"/></g></g></g><g clip-path="url(#id62)"><g clip-path="url(#id63)"><g clip-path="url(#id64)"><path fill="#cb6ce6" d="M 23.433594 15.851562 C 23.433594 15.851562 23.507812 15.847656 23.636719 15.832031 L 24.179688 15.761719 L 24.953125 15.660156 C 25.242188 15.628906 25.554688 15.632812 25.867188 15.617188 C 26.179688 15.597656 26.496094 15.589844 26.796875 15.578125 L 27.238281 15.558594 L 27.648438 15.574219 C 28.164062 15.601562 28.550781 15.617188 28.675781 15.617188 C 29 15.632812 29.324219 15.664062 29.644531 15.714844 C 30.121094 15.804688 30.699219 15.914062 31.28125 16.003906 C 31.570312 16.035156 31.851562 16.117188 32.121094 16.175781 C 32.390625 16.234375 32.648438 16.285156 32.871094 16.316406 C 33.324219 16.382812 33.667969 16.378906 33.789062 16.273438 C 33.816406 16.246094 33.316406 16.089844 32.757812 15.917969 C 32.199219 15.75 31.582031 15.554688 31.378906 15.558594 C 30.90625 15.507812 30.476562 15.460938 30.0625 15.417969 C 29.851562 15.398438 29.648438 15.375 29.445312 15.355469 C 29.238281 15.355469 29.035156 15.355469 28.828125 15.355469 L 27.507812 15.351562 C 27.039062 15.34375 26.53125 15.429688 25.949219 15.472656 C 25.21875 15.480469 23.570312 15.589844 23.433594 15.851562 Z M 23.433594 15.851562 " fill-opacity="1" fill-rule="evenodd"/></g></g></g><g clip-path="url(#id65)"><g clip-path="url(#id66)"><g clip-path="url(#id67)"><path fill="#cb6ce6" d="M 23.285156 62.945312 C 23.519531 62.78125 22.339844 62.382812 21.386719 62.121094 C 20.464844 61.777344 19.730469 61.597656 20.804688 62.144531 C 20.855469 62.25 23.089844 63.074219 23.285156 62.945312 Z M 23.285156 62.945312 " fill-opacity="1" fill-rule="evenodd"/></g></g></g><g clip-path="url(#id68)"><g clip-path="url(#id69)"><g clip-path="url(#id70)"><path fill="#cb6ce6" d="M 18.507812 61.433594 C 18.1875 61.558594 17.316406 60.121094 16.902344 60.289062 C 17.058594 60.53125 17.234375 60.757812 17.4375 60.964844 C 17.75 61.285156 18.164062 61.578125 18.507812 61.433594 Z M 18.507812 61.433594 " fill-opacity="1" fill-rule="evenodd"/></g></g></g><g clip-path="url(#id71)"><g clip-path="url(#id72)"><g clip-path="url(#id73)"><path fill="#cb6ce6" d="M 14.628906 59.402344 C 14.785156 59.355469 14.507812 58.929688 14.421875 58.945312 C 14.261719 58.988281 14.535156 59.429688 14.628906 59.402344 Z M 14.628906 59.402344 " fill-opacity="1" fill-rule="evenodd"/></g></g></g><g clip-path="url(#id74)"><g clip-path="url(#id75)"><g clip-path="url(#id76)"><path fill="#cb6ce6" d="M 13.59375 58.59375 C 13.761719 58.558594 13.304688 57.800781 13.085938 57.839844 C 12.90625 57.867188 13.375 58.632812 13.59375 58.59375 Z M 13.59375 58.59375 " fill-opacity="1" fill-rule="evenodd"/></g></g></g><g clip-path="url(#id77)"><g clip-path="url(#id78)"><g clip-path="url(#id79)"><path fill="#cb6ce6" d="M 12.101562 57.316406 C 12.15625 57.300781 11.246094 56.5 10.304688 55.570312 L 9.019531 54.132812 L 8.746094 53.828125 C 8.667969 53.722656 8.597656 53.628906 8.535156 53.542969 L 8.246094 53.152344 C 6.84375 51.222656 9 54.472656 9.546875 54.910156 C 9.625 54.996094 9.765625 55.203125 9.941406 55.460938 L 10.238281 55.886719 C 10.351562 56.027344 10.480469 56.167969 10.609375 56.308594 C 11.125 56.867188 11.707031 57.375 12.101562 57.316406 Z M 12.101562 57.316406 " fill-opacity="1" fill-rule="evenodd"/></g></g></g><g clip-path="url(#id80)"><g clip-path="url(#id81)"><g clip-path="url(#id82)"><path fill="#cb6ce6" d="M 8.339844 52.824219 C 8.496094 52.84375 8.410156 52.335938 8.320312 52.324219 C 8.160156 52.304688 8.246094 52.816406 8.339844 52.824219 Z M 8.339844 52.824219 " fill-opacity="1" fill-rule="evenodd"/></g></g></g><g clip-path="url(#id83)"><g clip-path="url(#id84)"><g clip-path="url(#id85)"><path fill="#cb6ce6" d="M 40.007812 17.425781 C 40.101562 17.914062 40.453125 18.027344 40.605469 17.980469 C 40.757812 17.933594 40.746094 17.632812 40.007812 17.425781 Z M 40.007812 17.425781 " fill-opacity="1" fill-rule="evenodd"/></g></g></g><g clip-path="url(#id86)"><g clip-path="url(#id87)"><g clip-path="url(#id88)"><path fill="#cb6ce6" d="M 7.089844 52.320312 C 7.398438 52.417969 5.851562 49.617188 6.652344 51.546875 C 6.675781 51.605469 6.75 51.796875 6.832031 51.976562 C 6.917969 52.15625 7.03125 52.308594 7.089844 52.320312 Z M 7.089844 52.320312 " fill-opacity="1" fill-rule="evenodd"/></g></g></g><g clip-path="url(#id89)"><g clip-path="url(#id90)"><g clip-path="url(#id91)"><path fill="#cb6ce6" d="M 5.328125 49.46875 C 5.679688 49.582031 4.375 46.644531 4.992188 48.640625 C 5.027344 48.757812 5.214844 49.433594 5.328125 49.46875 Z M 5.328125 49.46875 " fill-opacity="1" fill-rule="evenodd"/></g></g></g><g clip-path="url(#id92)"><g clip-path="url(#id93)"><g clip-path="url(#id94)"><path fill="#cb6ce6" d="M 4.199219 47.261719 C 4.199219 47.261719 4.296875 46.1875 4.128906 46.113281 C 4.09375 46.15625 4.066406 46.203125 4.046875 46.25 C 3.992188 46.355469 3.953125 46.464844 3.925781 46.582031 C 3.867188 46.835938 3.894531 47.128906 4.199219 47.261719 Z M 4.199219 47.261719 " fill-opacity="1" fill-rule="evenodd"/></g></g></g><g clip-path="url(#id95)"><path fill="#cb6ce6" d="M 104.695312 37.714844 L 98.695312 42.957031 L 98.695312 32.472656 Z M 104.695312 37.714844 " fill-opacity="1" fill-rule="nonzero"/></g><g mask="url(#id96)"><g transform="matrix(1, 0, 0, 1, 91, 29)"><g clip-path="url(#id98)"><g clip-path="url(#id97)"><path fill="#000000" d="M 9.195312 16.976562 C 4.640625 16.976562 0.945312 13.257812 0.945312 8.726562 C 0.945312 4.195312 4.640625 0.476562 9.195312 0.476562 C 13.753906 0.476562 17.445312 4.167969 17.445312 8.726562 C 17.445312 13.285156 13.730469 16.976562 9.195312 16.976562 Z M 9.195312 0.984375 C 4.917969 0.984375 1.457031 4.449219 1.457031 8.726562 C 1.457031 13.003906 4.917969 16.464844 9.195312 16.464844 C 13.472656 16.464844 16.9375 13.003906 16.9375 8.726562 C 16.9375 4.449219 13.449219 0.984375 9.195312 0.984375 Z M 9.195312 0.984375 " fill-opacity="1" fill-rule="nonzero"/></g></g></g></g></svg>